<svg xmlns="http://www.w3.org/2000/svg" pointer-events="none" class="leaflet-zoom-animated" width="931" height="530" viewBox="-78 -44 931 520" style="transform: translate3d(-78px, -44px, 0px);"><g><path class="leaflet-interactive" stroke="#201920" stroke-opacity="1" stroke-width="2" stroke-linecap="round" stroke-linejoin="round" fill="none" d="M128 171L128 167L127 168L125 164L129 162L128 159L131 156L132 157L135 154L137 154L137 152L140 153L142 151L143 154L149 154L154 146L159 147L162 144L163 145L163 143L169 141L172 138L179 136L179 129L182 126L181 125L184 124L184 120L181 113L181 107L177 105L177 103L190 99L198 101L199 100L196 97L196 95L202 77L209 80L218 81L222 79L224 77L222 66L226 62L228 63L231 61L233 57L232 56L234 54L240 54L242 61L247 63L249 67L255 67L256 70L259 69L259 71L262 73L264 80L266 80L267 83L267 86L265 88L266 91L264 94L265 101L266 100L269 102L270 101L276 103L286 103L297 111L302 111L301 114L303 114L304 119L310 128L316 127L335 130L351 130L358 135L359 134L364 137L374 138L375 140L379 141L382 138L399 131L409 132L420 129L428 121L432 120L435 117L431 111L432 106L435 102L448 106L452 104L457 98L464 98L470 93L469 92L474 87L478 87L479 84L483 85L485 83L490 82L492 84L499 83L498 78L488 68L483 67L479 71L470 69L467 72L464 69L464 67L466 65L473 45L481 49L488 44L494 42L495 39L493 39L493 37L498 30L500 22L503 19L505 19L506 16L505 11L503 9L500 10L500 8L508 0L509 1L525 -3L529 -3L533 0L534 -1L536 2L539 3L545 3L545 6L547 6L548 10L551 12L550 15L552 16L551 17L554 22L553 23L555 24L555 30L558 33L559 40L561 40L560 45L563 49L570 48L570 50L576 50L576 52L578 52L582 57L586 57L584 60L587 64L585 66L589 72L600 71L605 66L607 67L614 63L621 63L618 64L617 69L619 71L613 77L614 78L611 85L612 88L605 101L602 102L595 99L593 101L594 102L588 104L591 114L591 120L589 126L584 128L585 131L582 128L582 126L579 125L578 130L576 132L575 131L572 136L564 136L567 141L565 143L558 142L556 140L557 139L555 139L556 138L553 139L548 148L541 151L535 156M168 238L165 235L165 233L168 230L170 234L172 232L172 228L167 222L167 218L170 215L164 211L162 203L157 204L150 201L150 199L147 200L145 197L146 194L143 191L141 191L141 189L133 187L135 185L137 186M394 328L392 328L393 325L391 325L393 321L391 319L386 320L382 316L380 316L378 320L373 320L370 323L368 321L366 321L363 324L360 321L358 321L357 324L352 323L352 335L348 334L348 330L340 332L340 330L338 330L337 327L333 327L333 321L335 319L330 317L330 313L328 311L330 309L324 309L320 311L319 310L321 308L319 306L321 302L320 301L328 293L327 292L329 288L329 280L326 277L326 279L324 277L324 273L320 271L320 269L318 271L319 272L317 272L318 275L315 277L308 272L304 272L301 273L301 275L298 277L293 278L287 284L283 285L275 285L275 279L271 279L270 274L265 275L256 272L252 276L250 281L248 279L249 274L247 273L245 275L240 276L236 276L231 273L229 275L227 273L227 275L223 271L220 272L219 268L216 269L211 264L211 262L207 264L202 259L200 259L200 257L199 258L198 256L196 256L195 253L190 252L188 256L174 246L171 247L168 244L168 238M403 332L398 331L394 328M406 461L405 452M414 377L417 381L418 386M422 410L420 418M434 482L442 479M464 451L469 445M488 421L491 412M492 379L492 388M500 354L495 362M515 330L509 338M520 315L522 305" id="国界"/><path class="leaflet-interactive" stroke="#201920" stroke-opacity="1" stroke-width="2" stroke-linecap="butt" stroke-linejoin="round" stroke-dasharray="4,4" stroke-dashoffset="4" fill="none" d="M137 186L139 184L137 182L137 174L135 172L132 171L130 173L128 171" id="争议"/><path class="leaflet-interactive" stroke="gray" stroke-opacity="1" stroke-width="1" stroke-linecap="round" stroke-linejoin="round" stroke-dasharray="8,4,4,4" fill="none" d="M448 326L448 326M453 323L451 323L450 326L455 326L455 324L453 323" id="港澳"/><path class="leaflet-interactive" stroke="#4190da" stroke-opacity="1" stroke-width="1" stroke-linecap="round" stroke-linejoin="round" fill="none" d="M452 325L452 323L450 324L449 321L448 326L446 328L445 327L445 329L442 328L440 330L437 329L435 331L425 333L421 336L421 338L424 341L422 343L418 343L416 337L418 333L416 331L414 333L412 333L412 331L403 332M422 335L422 335M422 335L422 337L422 335M448 326L448 326M452 325L452 325M452 325L452 325M452 325L452 325M499 286L496 287L498 287L499 290L496 291L497 294L495 296L499 296L497 298L494 297L494 299L492 299L493 300L492 301L492 299L490 303L489 302L490 303L488 306L485 305L485 307L479 314L475 314L471 320L465 320L463 322L461 320L458 323L456 321L456 323L455 324L455 322L453 324L455 324L452 325M499 286L499 286M514 264L512 268L513 271L510 274L509 273L508 276L507 275L499 288L498 287L500 285L499 286M512 190L510 192L506 192L507 195L506 194L505 197L502 198L502 196L502 198L493 209L503 217L507 227L507 231L512 235L511 236L515 238L515 240L510 238L508 240L510 242M510 242L516 247L515 248L517 250L513 248L508 251L511 252L515 257L517 257L514 259L516 260L515 264M512 190L512 190M512 190L512 190M518 164L515 168L511 170L508 169L513 166L513 164L512 165L509 162L511 162L511 160L518 153L517 150L516 151L514 149L509 148L504 153L504 155L497 158L494 161L494 163L488 167L488 169L485 168L485 166L483 166L481 170L481 174L483 174L483 176L490 177L493 180L494 179L494 181L491 182L491 184L494 187L498 187L498 185L502 182L501 181L505 180L511 182L511 184L517 183L521 185L518 190L512 190M512 190L512 190M514 264L514 264M514 264L514 264M514 264L514 264M515 264L514 264M515 264L515 264M517 256L517 256M517 256L517 256M517 256L517 256M518 256L517 256M517 256L515 254L517 254L518 256M518 256L518 256M518 254L519 253L518 254M518 254L518 254M518 164L518 164M535 156L533 160L527 160L518 164M519 249L519 249M519 249L519 249M521 248L521 248M410 331L410 331M412 336L412 336M415 346L415 346M415 450L416 448L419 449L418 448L415 450M416 361L408 357L408 351L413 346L425 343L428 347L425 350L423 356L417 359L416 361M419 446L420 445L419 446M422 339L422 339M423 335L423 335M423 446L423 446M423 444L424 443L423 444M424 336L424 334L424 336M424 342L424 342M424 444L424 444M424 337L424 337M429 380L429 380M431 370L432 369L431 370M431 440L431 440M431 375L431 375M431 434L431 434M432 448L432 448M432 446L432 446M432 375L432 375M432 374L432 374M432 445L433 446L432 445M432 377L432 377M432 439L433 440L432 439M432 374L432 374M433 447L433 447M433 374L433 374M433 377L434 376L433 377M433 375L434 374L433 375M433 378L433 378M435 444L435 444M435 376L435 376M435 478L435 478M437 438L437 438M437 438L437 438M437 478L437 478M437 372L437 372M437 381L437 381M437 370L438 371L437 370M437 437L438 438L437 437M437 477L437 477M438 437L438 437M438 464L438 464M438 371L438 371M438 372L438 372M439 376L438 377L439 376M439 331L439 331M439 463L439 463M439 379L440 378L439 379M439 375L440 374L439 375M439 432L439 432M439 464L440 463L439 464M439 462L440 463L439 462M440 438L440 438M440 461L440 461M440 468L440 468M440 331L440 331M440 464L440 464M440 466L440 466M440 375L441 376L440 375M440 468L440 468M441 330L440 331L441 330M441 376L441 376M441 373L441 373M442 331L441 330L442 331M442 437L442 437M442 331L442 331M442 372L442 372M442 446L442 446M442 432L442 432M442 432L442 432M443 469L443 469M443 441L443 441M443 349L443 349M443 431L443 431M443 329L443 329M444 328L444 328M444 329L444 329M445 328L445 328M445 458L445 458M445 444L445 444M445 444L446 443L445 444M448 326L448 326M448 426L448 426M448 453L448 453M448 437L449 436L448 437M449 435L449 435M449 328L449 328M449 382L449 382M449 328L449 328M449 328L449 328M449 328L449 328M449 448L450 447L449 448M450 450L450 450M450 324L450 324M450 327L450 327M450 352L450 352M450 326L452 326L450 326M450 428L450 428M450 383L450 383M450 381L451 382L450 381M450 445L451 444L450 445M450 448L455 445L456 446L454 448L450 448M451 437L450 438L451 437M451 380L451 380M451 438L451 438M451 437L452 438L451 437M451 384L451 384M452 428L452 428M452 421L452 421M452 444L452 444M452 379L452 379M452 326L452 326M453 328L453 328M453 433L453 433M453 325L453 325M453 328L453 328M453 438L453 438M453 378L453 378M453 327L453 327M453 383L453 383M453 426L453 426M453 430L453 430M453 326L453 326M453 382L454 383L453 382M454 431L454 431M454 417L454 417M454 323L454 323M454 420L454 420M454 325L454 325M454 427L454 427M454 422L454 422M454 416L454 416M455 378L455 378M455 429L455 429M455 382L455 382M455 430L455 430M455 421L455 421M455 422L455 422M455 429L455 429M455 444L456 443L455 444M456 429L456 429M456 429L456 429M456 417L456 417M456 429L456 429M456 438L457 437L456 438M456 382L456 382M456 429L457 428L456 429M456 417L457 416L456 417M456 324L456 324M457 448L457 448M457 443L457 443M457 425L457 425M457 416L457 416M457 420L458 419L457 420M457 377L457 377M457 430L457 430M458 443L458 443M458 419L458 419M458 380L458 380M458 422L458 422M458 451L458 451M458 445L458 445M459 421L459 421M459 378L459 378M459 449L459 449M459 419L459 419M461 441L462 442L461 441M461 440L462 441L461 440M462 427L462 427M462 396L462 396M463 433L463 433M463 429L463 429M463 441L464 440L463 441M465 424L465 424M465 424L465 424M465 424L465 424M465 425L466 424L465 425M466 424L466 424M466 431L467 430L466 431M466 421L466 421M467 336L467 336M467 335L468 336L467 335M467 434L467 434M468 428L468 428M469 432L469 432M470 437L470 437M471 430L471 430M471 435L471 435M471 430L471 430M471 425L473 425L471 425M472 430L472 430M473 424L473 424M473 376L473 376M473 416L474 417L473 416M473 339L473 339M473 436L473 436M474 338L474 340L474 338M474 424L474 424M477 315L475 315L477 315M477 423L477 423M477 422L477 422M478 426L478 426M478 423L479 422L478 423M478 419L478 419M478 428L478 428M479 420L479 420M481 423L481 423M481 420L481 420M481 386L482 385L481 386M482 422L482 422M484 306L484 306M485 306L484 305L485 306M485 307L486 306L485 307M487 306L486 307L487 306M489 167L489 167M490 166L490 166M490 166L491 167L490 166M495 317L495 317M495 300L496 299L495 300M496 316L496 316M496 313L496 313M496 313L496 313M496 296L496 296M497 291L497 291M497 314L496 315L497 314M497 295L497 295M497 296L497 296M497 287L498 286L497 287M497 298L497 298M497 298L497 298M498 287L498 287M499 296L499 296M499 291L499 291M499 293L499 293M500 315L500 315M500 290L499 291L500 290M500 288L500 288M501 288L501 288M501 287L501 287M501 285L501 285M501 201L501 201M502 284L502 284M502 325L502 325M502 284L502 284M503 181L503 181M504 289L504 289M505 179L504 178L505 179M505 328L501 321L500 314L506 304L511 299L513 299L515 301L515 306L511 318L507 323L507 329L505 328M505 178L505 178M505 179L505 179M506 177L506 177M506 152L506 152M506 175L506 175M507 174L507 174M507 175L507 175M508 194L508 194M508 275L508 275M508 279L508 279M508 275L509 274L508 275M509 275L510 274L509 275M511 239L516 242L515 243L509 239L511 239M511 232L511 232M511 322L511 322M512 327L512 327M513 328L513 328M513 242L513 242M513 264L513 264M514 268L514 268M514 244L512 243L514 244M514 243L516 244L514 243M514 255L514 255M514 267L514 267M514 268L515 267L514 268M515 270L515 270M515 255L514 256L515 255M515 244L515 244M515 270L515 270M515 297L515 297M515 303L515 303M515 255L515 255M515 245L516 244L515 245M515 253L515 253M516 264L516 264M516 258L516 258M516 256L516 256M516 254L516 254M516 250L516 250M516 256L516 256M516 256L516 256M517 256L517 256M517 256L517 256M517 254L517 254M517 253L518 254L517 253M517 254L517 254M517 261L517 261M517 259L516 258L517 259M517 259L517 259M517 256L518 257L517 256M518 257L518 257M518 257L518 257M518 259L517 258L518 259M518 257L519 256L519 258L518 257M519 166L519 166M519 256L519 256M519 252L519 252M520 252L520 252M520 166L520 166M520 165L520 165M520 250L520 250M521 166L522 165L521 166M522 255L522 255M522 168L521 167L522 168M522 249L522 249M522 249L522 249M524 162L523 163L524 162M524 163L524 163M525 168L525 168M526 295L528 295L526 295M528 294L528 294M529 293L530 294L529 293M529 296L529 296M529 295L529 295M529 296L529 296M529 160L529 160M536 293L535 294L536 293" id="海洋"/><path class="leaflet-interactive" stroke="#747569" stroke-opacity="0.6" stroke-width="1" stroke-linecap="round" stroke-linejoin="round" fill="none" d="M256 197L247 194L237 194L229 196L226 201L218 201L211 205L202 204L201 201L197 201L197 203L195 203L193 206L181 204L181 206L179 208L178 207L177 212L175 214L174 213L170 215M320 232L318 232L318 234L315 237L313 237L312 240L309 238L308 241L306 239L303 240L301 238L302 235L301 236L299 234L301 234L299 234L296 231L290 233L285 232L283 230L276 230L271 227L265 227L261 225L255 217L257 217L257 209L255 209L254 206L257 200L253 198L256 197M278 168L271 169L269 171L263 171L262 173L259 174L260 176L262 176L262 181L264 181L269 188L267 188L264 191L264 193L267 194L265 198L259 196L257 198L256 197M353 222L352 223L351 221L349 221L345 217L345 215L346 214L355 217L355 215L357 215L354 212L354 210L358 206L357 205L361 203L360 200L362 200L363 198L361 192L358 189L360 187L354 181L353 182L349 180L340 173L340 175L338 175L330 167L325 168L323 170L318 166L314 166L315 171L312 174L312 176L310 175L308 177L304 174L295 175L293 170L289 171L289 169L284 169L283 166L278 168M310 128L306 131L308 134L306 138L301 140L298 139L290 146L288 150L282 151L280 161L277 165L278 168M373 184L366 180L366 174L370 172L373 167L371 165L372 164L369 163L363 167L359 165L353 167L355 169L353 171L346 168L345 164L335 159L341 151L340 148L332 148L332 150L331 149L328 151L328 149L325 151L325 148L322 146L320 142L321 140L316 127M332 263L330 249L327 244L330 243L326 239L324 233L320 232M353 222L352 227L348 225L349 230L343 232L341 230L340 231L338 227L337 230L330 227L326 217L322 216L320 217L320 219L318 219L318 221L321 224L318 227L319 228L317 228L318 231L320 232M324 273L324 271L328 273L328 265L330 267L330 263L332 263M381 277L380 274L376 276L374 274L374 268L370 268L370 271L366 273L367 276L362 281L363 288L360 291L360 289L353 292L353 290L351 290L351 286L345 278L346 277L344 275L342 277L339 274L339 269L336 267L334 269L334 273L332 271L332 263M383 228L382 231L376 231L373 228L374 225L372 221L365 220L362 215L356 219L359 222L354 227L353 222M400 180L397 177L391 175L395 168L393 164L389 165L389 167L388 166L386 170L386 178L384 181L373 184M373 184L375 184L382 191L381 192L383 196L383 201L385 201L385 203L387 203L390 206L390 202L395 199L395 197L391 195L391 189L393 187L397 187M381 277L381 279L377 281L373 281L370 279L368 283L369 288L375 286L376 287L373 296L376 299L378 299L375 304M375 304L375 306L379 306L381 310L386 309L388 311L387 315L386 314L383 317M415 292L414 295L411 294L410 295L412 295L412 297L409 296L408 299L404 297L405 298L401 300L398 299L397 296L387 304L380 301L376 305L375 304M390 270L388 268L384 270L384 272L385 271L389 273L390 275L388 277L381 277M397 187L397 189L404 193L405 192L408 195L408 204L406 206L401 205L401 209L391 207L392 210L390 212L393 215L391 215L392 222L386 222L385 225L387 226L384 229L383 228M407 235L401 235L400 233L398 233L399 232L397 233L395 231L396 230L389 231L387 229L384 230L383 228M413 270L412 273L410 273L406 265L402 265L400 263L398 263L398 267L395 266L393 270L391 270L391 268L390 270M390 270L389 266L385 266L385 264L381 260L385 256L383 254L387 252L389 254L392 253L392 255L395 256L398 253L398 249L403 248L403 244L407 241L405 237L407 235M397 187L397 183L400 180M428 164L428 162L425 165L422 165L420 163L421 164L419 166L418 165L419 166L412 173L412 178L410 178L408 182L400 180M407 235L416 240M416 240L421 245L421 247L415 251L406 251L406 253L408 254L406 258L408 258L411 261L410 262L412 261L413 264M413 264L413 270M451 265L449 265L448 258L444 261L443 258L438 261L434 257L430 257L428 255L424 255L424 259L417 258L417 260L416 259L413 264M415 292L415 290L413 290L415 282L410 283L410 281L412 281L411 280L415 278L413 270M435 304L434 303L431 305L431 301L427 301L431 294L429 294L428 289L424 289L421 293L419 291L417 293L415 292M427 225L425 227L423 225L415 225L417 229L418 228L421 231L417 231L415 233L416 240M417 332L417 333M417 332L421 328L422 329L422 327L425 326L425 324L428 321L430 321L430 315L435 310L434 309L436 307L435 304M418 344L419 344M420 344L422 343M422 212L421 209L424 202L422 188L426 182L423 179L423 177L426 174L427 169L429 167L428 164M422 212L427 225M422 212L432 210L435 207L436 208L436 206L442 206L448 202L449 195M423 343L424 342M462 243L460 241L457 242L456 239L451 240L449 236L450 235L448 233L446 235L444 233L437 234L433 232L427 225M427 226L427 226M452 150L452 152L442 154L442 156L439 154L434 162L431 161L431 163L428 164M435 304L437 300L441 300L441 302L443 302L444 299L442 299L444 297L448 299L451 297M463 197L460 196L459 198L449 195M449 195L447 191L449 191L449 189L450 190L449 187L452 184L452 180L450 176L448 176L448 172L450 170L449 168L454 167L456 163L455 160L451 158L451 156L452 157L452 155L455 154L453 152L454 151L452 150M469 258L467 259L463 257L463 259L461 259L458 262L454 262L451 265M451 297L451 293L453 291L451 291L452 288L450 286L450 281L448 279L448 277L453 272L453 268L451 265M451 297L451 299L457 299L457 301L455 301L453 305L455 306L462 303L466 305L465 304L467 302M493 144L486 143L486 135L485 136L483 134L484 133L482 129L476 131L472 137L471 136L468 139L466 137L462 139L462 141L458 141L459 137L455 135L453 141L450 142L452 150M469 212L469 214L472 215L473 218L470 221L466 217L464 219L465 222L463 222L462 225L458 227L461 230L461 232L467 232L467 238L464 239L462 243M469 258L466 252L466 248L468 246L462 243M483 175L478 180L474 180L471 183L470 182L469 185L467 185L467 187L462 192L463 197M469 212L463 212L463 210L461 210L461 208L460 209L458 207L466 199L468 199L468 197L462 201L463 197M467 302L466 299L473 288L472 285L476 283L477 280L475 278L478 277L478 275L481 276L487 272M477 314L474 305L472 305L470 303L471 302L467 302M485 262L485 260L481 260L478 257L476 257L477 258L474 260L473 259L475 257L473 255L469 258M470 212L469 212M494 208L490 208L490 210L487 211L486 214L483 211L481 213L478 212L478 214L474 208L471 209L470 212M497 245L496 246L494 244L490 244L489 243L491 241L489 241L489 239L488 240L486 238L488 236L487 235L489 235L488 232L492 232L493 229L490 228L490 230L486 230L486 228L483 225L485 221L481 221L482 220L479 217L470 212M479 155L477 153L480 150L476 150L472 146L470 148L471 149L465 152L467 154L463 158L463 160L466 163L470 163L472 161L474 162M481 172L478 173L473 170L475 166L474 162M475 161L474 162M475 161L477 161L477 157M477 157L474 158L475 161M477 314L478 315M479 155L477 157M478 316L479 316M479 155L482 158L480 158L480 160L484 166M485 262L491 256L490 255L495 252L493 250L496 249L497 245M485 262L484 265L487 268L487 272M503 282L502 279L498 281L496 277L493 280L490 279L490 272L487 272M493 144L495 142L495 132L500 137L500 139L506 133L507 134L510 131L514 131L516 128L524 128L527 125L529 125L529 121M498 158L498 155L495 152L493 152L493 150L490 149L493 144M507 246L504 249L497 245M505 283L506 283M506 174L508 174M515 241L510 238L509 244L507 246M510 250L507 246M511 250L512 250M527 80L527 82L526 81L524 83L519 76L520 73L534 61L536 67L538 55L542 53L541 45L548 30L542 22L539 24L539 26L524 27L521 18L522 15L518 11L515 14L513 14L513 12L510 10L514 4L512 0M512 250L513 249M514 249L515 249M516 248L517 248M519 248L520 248M521 247L522 247M591 120L586 120L582 114L580 116L580 114L577 116L576 115L574 119L572 119L568 113L567 108L564 111L565 112L562 113L559 107L556 108L557 103L555 101L547 101L545 97L536 98L532 94L532 88L525 89M525 89L524 85L529 83L529 81L528 82L527 80M525 89L522 91L522 95L519 92L516 93L514 91L513 94L516 96L518 100L516 103L518 111L523 110L525 108L528 117L528 119L526 119L529 121M527 80L527 80M527 80L527 80M527 80L527 80M529 121L530 120L535 125L535 127L538 124L539 125L541 133L543 135L544 134L542 136L542 140L544 140L543 141L546 144L544 148L546 148M386 204L387 203L386 204M415 286L416 285L415 286M443 258L443 258" id="省界"/><path class="leaflet-interactive" stroke="#3388ff" stroke-opacity="0" stroke-width="3" stroke-linecap="round" stroke-linejoin="round" fill="#eee" fill-opacity="0.5" fill-rule="evenodd" d="M478 151L480 151L475 150L473 146L468 151L465 152L467 154L466 156L463 157L463 160L466 163L470 163L472 161L473 162L475 160L474 157L479 156L477 154L478 151z" id="北京市"/><path class="leaflet-interactive" stroke="#3388ff" stroke-opacity="0" stroke-width="3" stroke-linecap="round" stroke-linejoin="round" fill="#eee" fill-opacity="0.5" fill-rule="evenodd" d="M482 164L483 163L480 160L480 158L482 158L479 155L477 157L477 161L474 162L475 166L473 170L481 172L483 168L482 167L484 165L481 164zM482 164L482 164z" id="天津市"/><path class="leaflet-interactive" stroke="#3388ff" stroke-opacity="0" stroke-width="3" stroke-linecap="round" stroke-linejoin="round" fill="#eee" fill-opacity="0.5" fill-rule="evenodd" d="M479 151L477 153L482 158L480 158L480 160L487 169L494 163L494 160L498 158L496 152L494 152L491 149L491 147L494 144L486 143L486 135L485 136L483 134L484 133L482 129L476 131L473 137L467 137L462 139L462 141L459 140L459 137L457 135L455 135L453 141L450 142L450 146L454 154L456 154L451 157L455 159L455 165L451 167L448 172L448 176L451 178L452 181L449 187L450 188L447 192L450 195L459 198L461 196L462 197L462 193L466 189L467 185L470 183L471 184L474 180L478 180L483 175L480 172L476 172L473 170L475 166L473 161L471 163L465 163L463 161L463 158L467 154L465 152L468 151L473 146L475 150L479 151zM477 157L474 158L475 161L477 161L477 157zM482 164L481 164zM490 166L490 167z" id="河北省"/><path class="leaflet-interactive" stroke="#3388ff" stroke-opacity="0" stroke-width="3" stroke-linecap="round" stroke-linejoin="round" fill="#eee" fill-opacity="0.5" fill-rule="evenodd" d="M422 212L432 210L435 207L436 208L436 206L442 206L448 202L449 195L447 191L450 189L449 188L452 183L451 178L448 175L450 171L449 168L454 167L456 163L455 160L451 157L456 154L454 154L453 150L448 154L445 153L442 154L441 156L439 154L434 162L432 161L429 164L426 174L423 177L423 179L426 182L422 188L424 200L421 209L422 212z" id="山西省"/><path class="leaflet-interactive" stroke="#3388ff" stroke-opacity="0" stroke-width="3" stroke-linecap="round" stroke-linejoin="round" fill="#eee" fill-opacity="0.5" fill-rule="evenodd" d="M316 127L321 140L319 142L325 148L325 151L329 151L331 149L332 150L332 148L339 148L341 151L340 155L335 159L345 164L345 168L348 168L351 171L353 171L355 169L353 167L358 165L362 167L366 164L371 163L373 167L370 172L366 174L366 180L374 184L383 181L386 178L386 170L388 166L389 167L389 165L392 164L395 167L395 169L391 175L394 177L398 177L398 179L403 180L403 182L408 182L409 179L412 178L411 175L419 166L418 165L419 166L421 164L420 163L422 165L424 165L427 162L429 164L432 161L433 162L439 154L441 156L445 153L448 154L452 152L450 142L453 141L455 135L457 135L459 137L458 140L461 141L466 137L468 139L471 136L472 137L475 135L475 131L479 131L482 129L484 133L483 134L485 136L486 135L486 143L493 144L495 142L495 136L493 134L495 132L500 137L500 139L506 133L507 134L510 131L514 131L520 127L523 128L529 124L529 122L526 119L528 119L528 117L525 108L518 112L516 105L518 101L513 94L514 91L516 93L519 92L522 95L522 91L525 89L524 85L529 83L528 80L526 80L527 81L525 83L523 82L523 80L519 76L520 73L528 68L534 61L536 67L538 55L542 53L541 45L548 30L542 22L539 24L539 26L524 26L521 19L522 14L520 14L517 11L514 14L510 10L514 4L513 1L508 0L500 8L500 10L505 10L506 17L499 24L500 25L495 32L496 33L493 39L495 39L494 42L481 49L473 45L466 61L466 65L464 66L464 69L467 72L470 69L479 72L483 67L488 68L498 78L499 83L497 85L492 84L490 82L482 85L480 84L478 87L474 87L469 93L470 94L465 98L457 98L452 104L448 106L442 105L439 102L434 102L431 110L435 118L427 122L422 128L410 132L399 131L390 134L379 141L376 140L375 138L364 137L360 134L358 135L351 130L330 130L317 128z" id="内蒙古自治区"/><path class="leaflet-interactive" stroke="#3388ff" stroke-opacity="0" stroke-width="3" stroke-linecap="round" stroke-linejoin="round" fill="#eee" fill-opacity="0.5" fill-rule="evenodd" d="M528 160L532 160L539 152L540 153L546 148L546 144L543 141L544 140L542 140L542 136L544 134L543 135L541 133L541 129L538 124L535 127L535 124L530 120L528 125L525 126L526 127L519 127L519 129L517 128L514 131L510 131L500 139L500 137L495 132L493 134L495 136L495 141L491 146L491 149L494 152L496 152L498 158L504 155L504 153L509 148L514 148L518 152L515 155L516 156L511 160L512 161L509 163L513 165L513 167L512 166L512 168L511 167L509 171L514 168L515 169L514 168L520 163L528 160zM521 165L521 165zM518 166L518 166zM521 165L522 166L521 165zM522 168L521 167L522 168zM524 162L523 163L524 162zM520 165L520 166zM506 152L506 152zM524 163L524 163zM525 168L525 168zM529 160L530 160z" id="辽宁省"/><path class="leaflet-interactive" stroke="#3388ff" stroke-opacity="0" stroke-width="3" stroke-linecap="round" stroke-linejoin="round" fill="#eee" fill-opacity="0.5" fill-rule="evenodd" d="M577 132L579 125L581 125L585 131L585 129L583 128L587 127L590 124L591 121L583 118L583 114L581 116L579 114L575 116L574 119L572 119L568 113L567 108L564 111L565 112L562 113L559 107L556 108L557 103L555 101L547 101L545 97L541 99L539 97L536 98L532 94L532 90L530 88L526 88L522 91L522 95L519 92L516 93L514 91L513 94L516 96L518 101L516 103L518 111L520 112L525 108L528 117L528 119L526 119L528 121L530 120L533 123L534 122L534 125L536 127L538 124L539 125L541 133L543 135L544 134L542 136L542 140L544 140L543 141L546 144L546 148L549 147L555 138L559 142L566 143L564 136L572 136L575 131L577 132z" id="吉林省"/><path class="leaflet-interactive" stroke="#3388ff" stroke-opacity="0" stroke-width="3" stroke-linecap="round" stroke-linejoin="round" fill="#eee" fill-opacity="0.5" fill-rule="evenodd" d="M528 89L532 89L532 93L536 98L539 97L541 99L545 97L547 101L555 101L557 103L556 108L559 107L563 113L565 113L564 110L567 108L568 113L572 119L574 119L574 117L579 114L581 116L583 114L583 118L589 121L590 114L588 105L595 100L604 103L605 102L605 98L612 87L611 86L614 78L613 77L618 72L618 64L621 62L605 66L602 69L601 68L602 69L600 71L589 72L585 67L587 65L584 60L586 57L582 57L575 50L572 51L569 48L563 49L561 47L561 40L559 40L558 33L555 30L556 27L554 27L555 24L553 23L554 22L551 18L552 17L550 11L548 9L549 8L545 6L546 5L544 3L538 3L528 -3L513 -1L512 0L514 4L509 10L512 11L513 14L515 14L518 11L522 15L521 18L524 27L539 26L541 22L548 29L546 37L541 44L542 52L538 54L536 67L534 61L523 72L520 73L519 76L524 83L526 81L527 82L527 80L528 82L529 81L529 83L524 84L525 88L528 89z" id="黑龙江省"/><path class="leaflet-interactive" stroke="#3388ff" stroke-opacity="0" stroke-width="3" stroke-linecap="round" stroke-linejoin="round" fill="#eee" fill-opacity="0.5" fill-rule="evenodd" d="M507 246L511 250L516 247L511 242L509 242L507 246zM515 241L510 238L509 239L512 242L516 242zM514 244L512 242L514 244zM514 243L517 244L514 243zM513 242L512 242zM515 245L515 244zM515 244L515 244z" id="上海市"/><path class="leaflet-interactive" stroke="#3388ff" stroke-opacity="0" stroke-width="3" stroke-linecap="round" stroke-linejoin="round" fill="#eee" fill-opacity="0.5" fill-rule="evenodd" d="M478 213L477 214L474 209L470 211L477 217L480 217L482 221L484 221L483 226L485 226L487 230L491 228L493 230L492 233L488 231L489 234L486 238L488 240L489 239L489 241L491 241L489 244L495 244L494 245L498 245L504 249L511 241L509 240L510 238L515 241L515 238L507 230L503 217L495 211L493 207L490 208L487 214L485 214L483 211L481 213L478 213z" id="江苏省"/><path class="leaflet-interactive" stroke="#3388ff" stroke-opacity="0" stroke-width="3" stroke-linecap="round" stroke-linejoin="round" fill="#eee" fill-opacity="0.5" fill-rule="evenodd" d="M487 272L490 273L490 279L493 280L497 277L498 280L502 279L504 282L505 278L509 276L508 273L509 274L513 272L513 264L516 263L514 259L517 257L513 256L508 251L510 249L507 246L504 249L498 245L496 249L493 250L495 252L492 253L490 255L491 256L484 263L484 265L487 268L487 271zM517 256L518 257L518 255L516 254L517 256zM517 254L517 255zM518 259L518 259zM519 249L519 249zM517 253L518 254L517 253zM518 254L518 253zM516 264L516 263zM519 257L519 257zM519 252L519 252zM514 267L515 267zM518 257L518 258zM514 264L514 264zM509 278L509 278zM515 249L516 250L515 249zM515 270L515 270zM517 259L516 258L517 259zM519 256L519 257zM520 250L520 250zM515 270L515 270zM516 254L516 254zM519 256L519 256zM514 256L515 255L514 256zM508 279L508 279zM515 263L516 264L515 263zM516 258L516 259zM515 255L515 255zM515 253L515 253zM517 256L517 256zM518 259L518 258zM509 276L509 276zM522 255L522 255zM518 253L518 253zM518 257L518 257zM522 249L522 249zM508 275L509 274L508 275zM509 275L510 274L509 275zM519 256L519 256zM522 249L522 249zM517 256L518 256zM516 256L516 256zM508 275L508 274zM519 257L519 257zM517 256L517 256z" id="浙江省"/><path class="leaflet-interactive" stroke="#3388ff" stroke-opacity="0" stroke-width="3" stroke-linecap="round" stroke-linejoin="round" fill="#eee" fill-opacity="0.5" fill-rule="evenodd" d="M472 218L473 219L469 221L465 217L465 222L463 222L462 225L458 227L461 230L461 232L467 232L467 239L465 239L462 242L466 246L468 246L465 250L469 258L472 257L472 255L475 257L473 259L474 260L477 257L479 257L480 260L487 261L491 256L490 255L495 252L493 250L495 250L497 246L494 245L495 244L489 244L491 242L487 238L489 234L488 231L492 233L493 230L491 228L487 230L485 226L483 226L485 221L481 221L482 219L480 217L476 217L471 212L469 213L470 215L472 215L472 218zM490 242L491 242zM473 259L473 259zM463 233L463 233z" id="安徽省"/><path class="leaflet-interactive" stroke="#3388ff" stroke-opacity="0" stroke-width="3" stroke-linecap="round" stroke-linejoin="round" fill="#eee" fill-opacity="0.5" fill-rule="evenodd" d="M492 302L491 299L493 301L492 300L495 299L493 299L493 297L499 297L495 295L497 295L497 291L499 289L497 287L499 287L499 285L500 286L498 288L501 287L500 286L503 283L503 281L498 281L496 277L494 280L491 279L489 271L486 272L486 274L482 276L479 275L476 278L477 280L472 285L473 288L471 292L468 294L466 302L470 302L472 304L471 305L474 304L475 311L478 314L485 308L484 305L488 306L490 304L489 303L492 302zM487 306L486 307L487 306zM495 300L496 299L495 300zM496 296L496 296zM499 291L499 290zM485 307L485 306zM499 286L499 286zM485 306L484 305L485 306zM499 291L499 291zM497 291L496 291zM500 288L500 288zM497 296L497 295zM498 287L498 287zM501 287L501 287zM502 284L502 284zM501 285L501 285zM497 287L498 286L497 287z" id="福建省"/><path class="leaflet-interactive" stroke="#3388ff" stroke-opacity="0" stroke-width="3" stroke-linecap="round" stroke-linejoin="round" fill="#eee" fill-opacity="0.5" fill-rule="evenodd" d="M485 262L484 260L480 260L479 257L477 257L474 260L473 259L475 257L473 255L467 259L463 257L463 259L461 259L458 262L454 262L451 265L453 267L453 272L449 276L448 280L450 280L449 283L452 288L451 290L453 290L451 298L457 299L453 304L455 306L462 303L465 305L466 304L468 295L473 288L472 285L477 281L476 278L479 275L482 276L487 273L487 269L484 265L485 262z" id="江西省"/><path class="leaflet-interactive" stroke="#3388ff" stroke-opacity="0" stroke-width="3" stroke-linecap="round" stroke-linejoin="round" fill="#eee" fill-opacity="0.5" fill-rule="evenodd" d="M470 212L471 209L474 208L477 213L481 213L483 211L486 214L488 211L490 211L489 210L491 208L495 207L495 205L502 198L502 196L502 198L505 197L506 194L507 195L506 192L507 193L515 189L518 190L521 184L511 184L511 182L505 180L501 181L502 182L498 185L498 187L494 187L491 183L494 182L494 180L491 177L488 178L483 175L478 180L474 180L471 183L470 182L470 184L469 183L470 184L467 185L467 187L462 192L462 201L468 197L468 199L466 199L458 207L465 213L470 212zM505 179L506 179zM505 178L505 178zM508 194L507 194zM506 177L506 176zM507 175L507 174zM501 201L501 200zM505 179L504 178zM506 175L506 175zM512 182L512 182zM512 182L512 182zM512 182L512 182zM463 199L463 199z" id="山东省"/><path class="leaflet-interactive" stroke="#3388ff" stroke-opacity="0" stroke-width="3" stroke-linecap="round" stroke-linejoin="round" fill="#eee" fill-opacity="0.5" fill-rule="evenodd" d="M441 234L444 233L447 235L449 233L451 240L456 240L457 242L460 241L462 243L463 240L467 239L467 233L463 233L461 229L458 228L462 226L465 217L469 221L473 219L469 212L463 212L463 210L461 210L460 208L459 209L458 206L468 198L463 199L462 201L463 198L461 196L459 198L450 195L448 202L443 206L436 205L435 208L422 213L429 229L436 234L440 234zM449 234L449 235z" id="河南省"/><path class="leaflet-interactive" stroke="#3388ff" stroke-opacity="0" stroke-width="3" stroke-linecap="round" stroke-linejoin="round" fill="#eee" fill-opacity="0.5" fill-rule="evenodd" d="M428 226L415 226L418 229L420 229L419 232L416 231L415 235L416 240L420 243L421 247L414 251L406 251L408 254L406 258L408 258L411 261L410 262L412 261L413 264L414 261L416 259L417 260L417 258L424 259L424 255L434 257L437 260L441 260L443 258L444 261L448 257L448 263L450 265L453 262L459 262L458 261L464 257L467 259L468 258L468 254L466 252L466 248L468 246L464 245L460 241L457 242L456 239L451 240L449 234L436 234L433 231L432 232L428 226zM412 251L412 251zM428 226L428 226zM441 234L441 234zM442 258L443 258z" id="湖北省"/><path class="leaflet-interactive" stroke="#3388ff" stroke-opacity="0" stroke-width="3" stroke-linecap="round" stroke-linejoin="round" fill="#eee" fill-opacity="0.5" fill-rule="evenodd" d="M435 304L437 300L441 300L441 302L443 302L442 299L444 297L448 299L451 296L451 292L453 291L451 291L452 288L450 286L450 280L448 280L448 278L449 275L452 274L451 273L453 271L453 267L450 264L449 265L448 258L444 261L443 258L441 260L437 260L434 257L423 255L423 259L415 259L413 263L413 274L415 278L413 280L412 279L412 281L409 283L414 282L416 284L416 286L414 286L413 289L418 294L418 291L422 293L424 290L430 290L429 293L431 293L427 302L431 300L431 304L435 303zM415 286L415 286z" id="湖南省"/><path class="leaflet-interactive" stroke="#3388ff" stroke-opacity="0" stroke-width="3" stroke-linecap="round" stroke-linejoin="round" fill="#eee" fill-opacity="0.5" fill-rule="evenodd" d="M448 326L449 322L455 324L456 321L458 323L461 320L463 322L465 320L471 320L474 317L474 315L477 314L474 304L471 305L472 304L470 302L466 302L466 305L464 305L463 303L455 306L453 304L457 300L456 298L451 299L451 297L445 297L443 299L442 298L444 300L442 302L440 300L436 301L437 302L435 304L435 310L430 315L431 318L428 322L425 323L424 326L422 326L421 329L420 328L418 331L417 330L418 333L416 337L418 343L422 343L424 341L421 338L423 334L435 331L437 329L445 329L448 326zM476 315L476 315zM442 330L441 331L442 330zM439 331L440 331zM453 327L453 327zM423 335L424 336L424 334L423 335zM439 331L439 330zM423 336L421 336L424 336zM449 328L449 328zM449 328L449 328zM444 329L444 329zM450 324L450 324zM453 328L453 328zM453 328L452 328zM474 338L475 339L473 340L475 340L474 338zM443 329L443 329zM422 339L422 339zM424 337L424 337zM424 342L424 342zM467 335L468 336L467 335zM467 336L467 336zM466 321L466 321zM466 321L466 321z" id="广东省"/><path class="leaflet-interactive" stroke="#3388ff" stroke-opacity="0" stroke-width="3" stroke-linecap="round" stroke-linejoin="round" fill="#eee" fill-opacity="0.5" fill-rule="evenodd" d="M415 292L414 295L411 294L410 295L412 295L410 297L409 296L408 299L407 297L405 297L404 300L402 300L396 296L394 300L387 304L380 301L377 305L375 305L382 310L387 309L389 311L388 314L386 314L383 317L386 320L391 319L393 321L391 325L393 326L392 328L403 332L408 330L411 331L411 333L413 333L416 331L417 332L417 330L418 331L421 328L422 329L422 327L425 326L425 324L431 319L431 313L435 311L434 309L436 307L434 303L431 305L430 300L428 302L427 301L431 294L429 294L429 290L424 290L421 293L419 291L418 294L415 292zM380 302L380 302zM412 336L412 336z" id="广西壮族自治区"/><path class="leaflet-interactive" stroke="#3388ff" stroke-opacity="0" stroke-width="3" stroke-linecap="round" stroke-linejoin="round" fill="#eee" fill-opacity="0.5" fill-rule="evenodd" d="M420 345L413 346L408 351L408 357L410 359L416 361L424 355L424 352L428 348L425 344L420 344zM437 478L437 478zM445 444L446 443zM435 478L435 478zM431 370L432 369L431 370zM481 386L481 385zM437 477L437 477zM433 377L434 377zM432 377L433 377zM450 448L454 448L456 446L455 445L451 448zM451 437L452 438L451 437zM451 438L451 438zM435 376L435 376zM433 375L434 374L433 375zM437 438L437 438zM450 450L450 450zM453 438L453 438zM437 370L438 371L437 370zM457 425L457 425zM466 431L466 430zM456 429L457 428zM449 448L450 447zM415 450L417 448L419 449L415 449zM470 437L470 437zM439 379L440 378L439 379zM440 438L440 438zM455 421L456 421zM439 376L439 376zM471 425L472 425zM438 371L438 371zM431 375L432 375zM463 429L464 429zM457 443L457 443zM455 444L456 443zM461 441L462 442L461 441zM450 445L451 444zM463 433L463 433zM471 435L471 435zM448 437L449 436L448 437zM457 420L458 419L457 420zM456 417L456 416zM459 421L459 421zM432 375L432 375zM451 437L451 438zM419 446L419 445zM473 416L474 417L473 416zM433 374L433 374zM439 375L440 374L439 375zM433 378L434 378zM450 428L450 427zM458 443L458 443zM472 430L472 431zM462 427L462 427zM474 424L474 424zM457 377L457 377zM467 434L467 434zM449 435L449 435zM457 448L457 448zM455 422L456 422zM482 422L482 422zM453 426L453 426zM457 416L457 416zM473 424L473 424zM423 444L424 443L423 444zM431 440L431 440zM461 440L462 440zM445 444L445 444zM452 421L452 421zM478 426L478 425zM453 378L453 378zM424 444L424 444zM463 441L464 440zM432 448L432 448zM432 439L433 439zM423 446L423 446zM438 437L438 437zM471 430L471 430zM435 444L435 444zM455 382L455 382zM459 419L460 419zM452 379L452 379zM468 428L468 427zM478 423L478 422zM458 451L458 451zM442 437L442 437zM433 447L433 447zM437 438L437 438zM439 462L440 462zM456 438L456 437zM458 445L458 444zM443 441L443 441zM448 453L448 453zM473 376L473 376zM478 428L478 427zM443 349L443 349zM455 378L455 378zM450 352L450 352zM440 468L441 468zM432 445L432 445zM437 437L438 437zM442 446L443 446zM440 464L440 464zM439 464L439 463zM462 396L462 396zM448 426L448 426zM450 383L450 383zM443 469L443 469zM440 468L440 468zM438 464L438 464zM437 372L437 372zM437 381L437 381zM440 466L440 466zM439 463L439 463zM445 458L445 458zM469 432L469 432zM459 449L459 448zM432 446L432 446zM451 380L451 380zM459 378L459 379zM473 436L473 436zM440 375L441 375zM429 346L429 346zM465 425L466 425zM477 422L477 423zM441 376L441 376zM466 424L466 424zM439 432L440 432zM456 382L456 382zM478 419L478 420zM481 420L481 420zM453 433L453 433zM457 430L457 431zM440 461L440 461z" id="海南省"/><path class="leaflet-interactive" stroke="#3388ff" stroke-opacity="0" stroke-width="3" stroke-linecap="round" stroke-linejoin="round" fill="#eee" fill-opacity="0.5" fill-rule="evenodd" d="M390 270L391 267L392 270L396 266L397 267L399 263L401 263L402 266L406 264L406 268L408 268L408 270L411 273L414 269L414 265L412 261L410 261L410 259L406 258L408 254L406 252L408 252L409 250L412 251L420 248L421 245L419 242L417 240L413 240L411 237L407 235L407 237L405 237L407 241L403 245L404 244L402 249L398 249L399 250L395 256L393 256L392 253L389 254L385 252L385 254L383 254L385 256L382 262L385 263L385 265L387 265L390 269zM412 250L412 251zM384 255L384 255zM412 251L412 251zM395 256L395 256z" id="重庆市"/><path class="leaflet-interactive" stroke="#3388ff" stroke-opacity="0" stroke-width="3" stroke-linecap="round" stroke-linejoin="round" fill="#eee" fill-opacity="0.5" fill-rule="evenodd" d="M348 282L353 292L362 289L362 281L367 276L367 272L368 273L370 271L369 270L373 268L373 272L375 272L373 274L375 276L381 274L382 277L389 277L389 273L385 271L384 272L384 270L387 267L390 270L389 266L385 266L385 264L381 260L385 257L384 254L383 255L386 252L389 254L392 253L392 255L395 256L399 249L403 248L403 244L407 241L405 237L407 237L407 235L403 235L400 233L399 234L399 232L396 233L395 230L388 231L388 229L386 229L384 231L383 228L382 231L376 231L373 228L374 225L372 221L365 220L362 215L357 218L359 222L354 227L353 222L352 227L348 225L349 230L343 232L341 230L340 231L338 227L337 230L330 227L326 217L320 217L318 221L321 224L318 226L319 227L317 229L325 235L329 243L327 245L330 249L332 270L334 273L334 269L336 267L340 271L339 274L342 277L344 275L348 282zM389 254L389 254zM395 255L395 255zM383 254L383 254z" id="四川省"/><path class="leaflet-interactive" stroke="#3388ff" stroke-opacity="0" stroke-width="3" stroke-linecap="round" stroke-linejoin="round" fill="#eee" fill-opacity="0.5" fill-rule="evenodd" d="M413 270L412 273L410 273L409 270L408 271L408 269L406 268L406 264L402 266L402 264L399 263L398 266L396 266L392 270L391 267L390 270L387 267L384 270L384 272L385 271L389 273L389 276L383 276L380 280L377 281L374 279L372 281L370 279L368 283L369 288L376 287L373 296L376 299L378 299L375 303L377 305L381 301L387 305L389 303L388 302L394 300L396 296L398 297L398 299L403 300L405 298L404 297L408 298L408 296L410 297L412 295L410 295L411 294L414 295L415 290L413 290L413 286L415 286L415 282L410 283L412 281L411 280L415 278L413 270zM415 285L415 285zM415 286L416 286z" id="贵州省"/><path class="leaflet-interactive" stroke="#3388ff" stroke-opacity="0" stroke-width="3" stroke-linecap="round" stroke-linejoin="round" fill="#eee" fill-opacity="0.5" fill-rule="evenodd" d="M381 277L379 273L378 275L375 276L373 274L375 272L373 272L374 269L370 269L370 271L368 273L367 272L366 277L362 281L363 288L360 291L360 289L354 292L347 282L345 278L346 277L344 275L342 277L339 274L340 271L336 267L334 269L334 273L332 271L332 263L330 263L330 267L328 265L327 268L329 271L327 273L325 271L324 272L325 279L328 278L329 281L329 291L327 291L328 293L320 301L321 302L319 306L321 308L319 310L320 311L324 309L330 309L328 311L330 314L329 315L331 318L335 318L332 326L337 327L341 332L345 332L347 330L349 332L348 333L352 335L353 330L351 325L353 323L356 324L359 321L363 324L366 321L370 323L373 320L374 322L378 320L377 319L380 316L383 317L386 314L388 314L389 311L387 309L382 310L379 306L375 306L377 301L377 299L374 296L376 287L374 286L370 288L368 285L370 279L372 281L374 279L378 281L381 278z" id="云南省"/><path class="leaflet-interactive" stroke="#3388ff" stroke-opacity="0" stroke-width="3" stroke-linecap="round" stroke-linejoin="round" fill="#eee" fill-opacity="0.5" fill-rule="evenodd" d="M256 197L247 194L237 194L229 196L226 201L225 200L223 202L220 200L211 205L202 204L201 201L197 201L197 203L195 203L193 206L181 204L181 206L179 208L178 207L177 212L175 214L171 214L167 218L167 222L172 229L171 234L169 234L168 231L165 232L165 236L168 238L168 244L171 247L174 246L179 251L180 250L184 252L188 256L190 252L195 253L207 264L209 262L212 263L211 264L216 269L219 268L221 272L224 271L226 275L228 273L228 275L232 273L235 276L243 276L245 274L249 274L248 279L250 281L257 272L265 274L267 276L269 274L271 278L275 280L276 285L287 284L293 278L298 277L301 275L301 273L304 272L308 272L315 276L318 274L317 273L319 269L324 273L324 271L328 273L328 265L330 267L330 263L332 263L330 254L331 253L329 246L327 244L330 243L326 239L324 233L317 232L318 235L317 234L316 237L312 237L313 240L309 238L308 241L306 239L303 240L301 238L302 235L299 235L300 234L295 231L287 233L282 230L276 230L271 227L265 227L261 225L255 218L257 216L257 209L255 209L254 206L257 200L253 198L256 197z" id="西藏自治区"/><path class="leaflet-interactive" stroke="#3388ff" stroke-opacity="0" stroke-width="3" stroke-linecap="round" stroke-linejoin="round" fill="#eee" fill-opacity="0.5" fill-rule="evenodd" d="M422 212L421 209L424 202L422 188L426 182L423 176L427 172L427 168L429 165L428 162L424 165L420 163L421 164L419 166L418 165L419 166L412 173L412 178L410 178L408 182L404 182L401 179L397 183L397 189L404 193L405 192L408 195L408 205L401 205L401 209L391 207L392 210L390 212L393 215L391 215L392 217L390 219L392 222L386 222L385 225L387 226L385 229L383 229L387 229L389 231L395 230L396 233L399 232L399 234L400 233L403 236L406 235L416 240L415 233L417 231L421 231L418 228L417 229L417 227L415 226L424 225L425 227L427 225L422 212zM427 223L427 223zM388 230L388 230z" id="陕西省"/><path class="leaflet-interactive" stroke="#3388ff" stroke-opacity="0" stroke-width="3" stroke-linecap="round" stroke-linejoin="round" fill="#eee" fill-opacity="0.5" fill-rule="evenodd" d="M391 201L390 206L386 204L387 203L385 203L382 200L382 190L375 184L370 183L368 180L366 180L366 174L370 172L373 167L371 163L366 164L363 167L358 165L355 166L355 169L353 171L346 168L345 164L343 164L337 159L334 159L339 155L341 151L340 148L332 148L332 150L331 149L328 151L328 149L325 151L325 148L322 146L320 142L320 136L316 127L308 129L306 131L308 134L307 137L301 140L298 139L290 146L288 150L282 151L280 161L277 165L278 168L280 166L284 166L284 169L288 169L290 171L293 170L295 174L304 174L308 177L310 175L312 176L312 174L315 171L315 166L324 170L325 167L327 169L329 167L332 168L331 169L338 175L340 176L340 173L343 176L344 175L348 180L356 182L363 198L354 210L354 212L357 215L353 217L346 214L345 215L348 221L353 223L354 222L354 226L357 225L356 224L358 224L359 222L357 221L356 218L358 218L361 215L364 217L365 220L372 221L374 225L373 228L376 231L382 231L383 228L386 228L386 222L392 222L391 215L393 215L390 212L392 210L391 207L400 209L402 208L400 206L401 205L407 206L407 200L409 198L408 194L399 190L396 187L392 187L392 191L390 193L391 196L395 198L394 201L392 201zM387 203L388 203zM361 195L362 195zM388 204L388 204zM391 201L391 201z" id="甘肃省"/><path class="leaflet-interactive" stroke="#3388ff" stroke-opacity="0" stroke-width="3" stroke-linecap="round" stroke-linejoin="round" fill="#eee" fill-opacity="0.5" fill-rule="evenodd" d="M361 195L361 191L355 181L354 182L352 180L348 180L346 176L345 177L340 173L340 175L338 175L330 167L328 167L327 169L325 167L323 170L318 166L314 166L315 171L312 174L312 176L310 175L308 177L304 174L295 175L293 170L290 171L288 169L284 169L284 167L281 166L269 171L264 171L259 174L260 176L263 175L262 181L269 187L264 190L264 192L267 193L267 196L265 198L259 196L257 198L253 198L257 200L254 205L254 207L257 210L257 216L255 218L261 225L265 227L268 226L276 230L285 231L287 233L295 231L302 236L301 238L303 240L306 239L308 241L309 238L313 240L312 237L313 238L316 237L317 234L318 235L317 232L319 232L318 227L320 224L318 220L321 216L326 218L329 225L333 229L336 230L338 228L340 230L339 231L342 230L344 232L349 230L348 225L351 225L352 227L353 223L349 221L345 216L347 214L352 217L357 215L354 212L354 210L358 206L357 205L361 203L360 201L363 198L362 195z" id="青海省"/><path class="leaflet-interactive" stroke="#3388ff" stroke-opacity="0" stroke-width="3" stroke-linecap="round" stroke-linejoin="round" fill="#eee" fill-opacity="0.5" fill-rule="evenodd" d="M397 187L397 183L400 180L397 177L391 175L395 168L393 164L389 165L389 167L388 166L386 170L386 178L384 181L373 184L375 184L382 191L381 192L383 196L383 201L385 201L385 203L387 203L390 206L390 201L394 201L395 198L391 195L391 189L393 187L397 187zM387 203L387 204zM388 204L388 204z" id="宁夏回族自治区"/><path class="leaflet-interactive" stroke="#3388ff" stroke-opacity="0" stroke-width="3" stroke-linecap="round" stroke-linejoin="round" fill="#eee" fill-opacity="0.5" fill-rule="evenodd" d="M310 128L306 123L303 114L301 114L302 111L298 111L286 103L276 103L270 101L269 102L267 100L266 101L264 96L267 91L265 88L267 84L266 80L264 80L260 71L254 67L251 68L247 66L247 64L242 60L243 59L240 58L240 53L238 55L233 54L233 58L228 63L226 62L222 66L224 75L222 79L218 81L209 80L202 77L196 95L196 97L199 99L198 101L193 100L192 98L190 100L183 102L182 101L177 104L181 107L181 113L184 120L184 123L181 125L182 126L179 129L180 134L175 138L163 143L162 145L160 145L160 147L153 147L148 154L145 153L143 155L143 151L139 153L136 152L137 154L135 154L132 157L131 156L128 159L129 162L126 163L127 168L128 167L127 170L130 173L131 171L136 173L138 181L137 182L139 184L137 186L133 186L144 191L146 193L145 198L148 200L149 199L157 204L162 203L162 207L164 209L163 211L169 215L177 213L178 208L181 206L181 204L193 206L198 201L200 201L203 204L208 205L213 204L220 200L222 202L225 201L230 196L234 196L237 194L247 194L257 198L259 196L265 198L267 194L264 191L269 187L263 181L263 175L260 176L259 173L277 168L282 151L288 150L292 144L298 139L300 139L301 141L303 138L305 138L308 134L306 131L308 129z" id="新疆维吾尔自治区"/><path class="leaflet-interactive" stroke="#3388ff" stroke-opacity="0" stroke-width="3" stroke-linecap="round" stroke-linejoin="round" fill="#eee" fill-opacity="0.5" fill-rule="evenodd" d="M503 324L506 329L507 323L511 318L515 306L515 300L509 300L504 306L502 312L500 313L502 323zM536 293L536 293zM527 295L528 294L527 295zM497 314L496 315zM529 293L529 293zM496 313L495 314L496 313zM496 316L496 316zM496 313L496 313zM516 296L516 296zM511 322L512 322zM512 327L512 327zM516 297L517 297zM495 317L495 317zM502 325L503 325z" id="台湾省"/><path class="leaflet-interactive" stroke="#3388ff" stroke-opacity="0" stroke-width="3" stroke-linecap="round" stroke-linejoin="round" fill="#eee" fill-opacity="0.5" fill-rule="evenodd" d="M452 323L452 325L450 325L451 326L455 324L452 323zM452 326L453 326zM454 324L454 324zM454 324L454 324zM454 324L454 324zM454 325L454 325zM454 324L454 324zM454 325L454 325zM454 325L454 325z" id="香港特别行政区"/><path class="leaflet-interactive" stroke="#3388ff" stroke-opacity="0" stroke-width="3" stroke-linecap="round" stroke-linejoin="round" fill="#eee" fill-opacity="0.5" fill-rule="evenodd" d="M448 327L448 326zM448 326L448 326z" id="澳门特别行政区"/><path class="leaflet-interactive" stroke="#3388ff" stroke-opacity="0" stroke-width="3" stroke-linecap="round" stroke-linejoin="round" fill="#eee" fill-opacity="0.5" fill-rule="evenodd" d="M520 315L522 305L520 315zM509 338L515 330L509 338zM495 362L500 353L495 362zM492 387L492 378L492 387zM489 419L488 421L491 412L490 415zM464 452L469 445L464 452zM438 481L434 482L442 479L439 480zM405 460L406 461L405 453L405 460zM420 417L422 414L422 410L421 416zM418 385L414 377L417 383z" id="100000_JD"/></g></svg>