<?xml version="1.0" standalone="no"?>
<!DOCTYPE svg PUBLIC "-//W3C//DTD SVG 1.1//EN" "http://www.w3.org/Graphics/SVG/1.1/DTD/svg11.dtd">
<svg  node-id="1" sillyvg="true" template-height="1024" template-width="1024" version="1.1" viewBox="0 0 1024 1024" width="1024" xmlns="http://www.w3.org/2000/svg" xmlns:xlink="http://www.w3.org/1999/xlink"><defs node-id="60"><radialGradient cx="0.5" cy="0.19668992" fx="0.5" fy="0.19668992" gradientTransform="matrix(0 1 -0.912281 0 0.67943655 -0.30331)" gradientUnits="objectBoundingBox" id="radialGradient-1" node-id="5" r="0.9393923" rev="1" spreadMethod="pad"><stop offset="0" stop-color="#ffe476"></stop><stop offset="0.41387266" stop-color="#fcec6c"></stop><stop offset="1" stop-color="#ffb02f"></stop></radialGradient><filter height="1.173" id="filter-4" node-id="10" width="1.158" x="-0.079" y="-0.087"><feGaussianBlur color-interpolation-filters="linearRGB" in="SourceAlpha" result="shadowBlurInner1" stdDeviation="64 64"></feGaussianBlur><feOffset color-interpolation-filters="linearRGB" dx="0" dy="16" in="shadowBlurInner1" result="shadowOffsetInner1"></feOffset><feComposite color-interpolation-filters="linearRGB" in="shadowOffsetInner1" in2="SourceAlpha" k1="0" k2="-1" k3="1" k4="0" operator="arithmetic" result="shadowInnerInner1"></feComposite><feColorMatrix color-interpolation-filters="linearRGB" in="shadowInnerInner1" result="result4" type="matrix" values="0 0 0 0 0.968627451 0 0 0 0 0.68627451 0 0 0 0 0.270588235 0 0 0 0.501145583 0"></feColorMatrix></filter><filter height="1.571" id="filter-6" node-id="16" width="1.571" x="-0.286" y="-0.286"><feGaussianBlur color-interpolation-filters="linearRGB" in="SourceAlpha" result="shadowBlurInner1" stdDeviation="16 16"></feGaussianBlur><feOffset color-interpolation-filters="linearRGB" dx="0" dy="32" in="shadowBlurInner1" result="shadowOffsetInner1"></feOffset><feComposite color-interpolation-filters="linearRGB" in="shadowOffsetInner1" in2="SourceAlpha" k1="0" k2="-1" k3="1" k4="0" operator="arithmetic" result="shadowInnerInner1"></feComposite><feColorMatrix color-interpolation-filters="linearRGB" in="shadowInnerInner1" result="result4" type="matrix" values="0 0 0 0 0.188235294 0 0 0 0 0.0823529412 0 0 0 0 0.00784313725 0 0 0 0.80111673 0"></feColorMatrix></filter><filter height="1.176" id="filter-8" node-id="22" width="1.071" x="-0.036" y="-0.088"><feGaussianBlur color-interpolation-filters="linearRGB" in="SourceAlpha" result="shadowBlurInner1" stdDeviation="8 8"></feGaussianBlur><feOffset color-interpolation-filters="linearRGB" dx="0" dy="0" in="shadowBlurInner1" result="shadowOffsetInner1"></feOffset><feComposite color-interpolation-filters="linearRGB" in="shadowOffsetInner1" in2="SourceAlpha" k1="0" k2="-1" k3="1" k4="0" operator="arithmetic" result="shadowInnerInner1"></feComposite><feColorMatrix color-interpolation-filters="linearRGB" in="shadowInnerInner1" result="result4" type="matrix" values="0 0 0 0 0.661258421 0 0 0 0 0.0872254633 0 0 0 0 0.00982776113 0 0 0 1 0"></feColorMatrix></filter><filter height="1.571" id="filter-10" node-id="28" width="1.571" x="-0.286" y="-0.286"><feGaussianBlur color-interpolation-filters="linearRGB" in="SourceAlpha" result="shadowBlurInner1" stdDeviation="16 16"></feGaussianBlur><feOffset color-interpolation-filters="linearRGB" dx="0" dy="32" in="shadowBlurInner1" result="shadowOffsetInner1"></feOffset><feComposite color-interpolation-filters="linearRGB" in="shadowOffsetInner1" in2="SourceAlpha" k1="0" k2="-1" k3="1" k4="0" operator="arithmetic" result="shadowInnerInner1"></feComposite><feColorMatrix color-interpolation-filters="linearRGB" in="shadowInnerInner1" result="result4" type="matrix" values="0 0 0 0 0.188235294 0 0 0 0 0.0823529412 0 0 0 0 0.00784313725 0 0 0 0.80111673 0"></feColorMatrix></filter><filter height="2.8" id="filter-11" node-id="33" width="2.636" x="-0.818" y="-0.9"><feGaussianBlur color-interpolation-filters="linearRGB" in="SourceGraphic" result="result1" stdDeviation="48 48"></feGaussianBlur></filter><filter height="2.8" id="filter-12" node-id="35" width="2.636" x="-0.818" y="-0.9"><feGaussianBlur color-interpolation-filters="linearRGB" in="SourceGraphic" result="result1" stdDeviation="48 48"></feGaussianBlur></filter><clipPath id="mask-3_14" node-id="41"><path d="M 486.86 80.38 L 501.27 80.01 L 515.38 80.26 L 529.21 81.12 L 542.78 82.56 L 556.11 84.60 L 569.45 87.25 L 582.45 90.45 L 595.14 94.18 L 607.52 98.44 L 619.62 103.24 L 631.55 108.62 L 643.10 114.48 L 654.29 120.81 L 665.13 127.63 L 675.63 134.95 L 685.80 142.75 L 695.54 150.99 L 704.88 159.66 L 713.82 168.77 L 722.36 178.34 L 730.43 188.28 L 738.02 198.61 L 745.16 209.35 L 751.83 220.49 L 758.05 232.07 L 769.36 237.33 L 780.52 242.98 L 791.54 249.01 L 802.41 255.43 L 813.15 262.25 L 826.23 271.24 L 838.93 280.74 L 851.27 290.77 L 863.26 301.34 L 872.54 310.15 L 881.50 319.23 L 890.13 328.59 L 898.46 338.24 L 906.47 348.18 L 914.14 358.40 L 921.41 368.85 L 928.28 379.53 L 934.76 390.44 L 940.86 401.61 L 946.52 412.99 L 951.71 424.56 L 956.44 436.32 L 960.70 448.28 L 964.49 460.45 L 967.77 472.74 L 970.50 485.18 L 972.70 497.79 L 974.35 510.58 L 975.46 523.55 L 975.98 536.48 L 975.88 549.54 L 975.17 562.77 L 973.83 576.16 L 971.84 589.75 L 969.02 604.58 L 965.77 618.95 L 962.10 632.88 L 958.01 646.38 L 953.51 659.47 L 948.61 672.17 L 943.16 684.86 L 937.32 697.16 L 931.10 709.06 L 924.50 720.57 L 917.52 731.73 L 910.15 742.52 L 902.33 753.08 L 894.15 763.28 L 885.61 773.13 L 876.71 782.64 L 867.44 791.81 L 857.79 800.64 L 847.85 809.09 L 837.58 817.20 L 826.95 824.98 L 815.96 832.44 L 804.61 839.57 L 792.88 846.38 L 784.16 851.78 L 774.82 857.07 L 764.83 862.22 L 754.14 867.24 L 743.49 871.78 L 732.08 876.19 L 719.87 880.45 L 706.83 884.56 L 693.95 888.20 L 680.18 891.67 L 665.47 894.97 L 649.78 898.08 L 634.38 900.75 L 617.95 903.23 L 600.46 905.49 L 581.85 907.53 L 560.70 909.39 L 539.95 910.75 L 519.60 911.61 L 499.64 911.98 L 480.05 911.87 L 460.19 911.26 L 440.81 910.15 L 421.90 908.54 L 403.44 906.45 L 385.42 903.89 L 367.22 900.75 L 349.57 897.11 L 332.44 892.98 L 315.82 888.39 L 299.69 883.32 L 286.19 878.59 L 273.10 873.51 L 260.41 868.11 L 248.10 862.37 L 236.16 856.30 L 224.58 849.90 L 213.11 843.00 L 202.06 835.76 L 191.42 828.18 L 181.17 820.25 L 171.30 811.97 L 161.82 803.34 L 152.67 794.30 L 143.95 784.89 L 135.64 775.11 L 127.74 764.93 L 120.23 754.36 L 113.12 743.39 L 106.56 732.22 L 100.43 720.64 L 94.73 708.62 L 89.45 696.15 L 84.61 683.21 L 80.21 669.77 L 76.46 656.48 L 73.16 642.70 L 70.34 628.41 L 67.99 613.58 L 66.15 598.19 L 64.82 582.22 L 64.14 567.09 L 64.03 552.57 L 64.46 538.63 L 65.41 525.24 L 66.86 512.37 L 68.90 499.28 L 71.42 486.70 L 74.40 474.60 L 77.84 462.97 L 81.72 451.78 L 86.18 440.62 L 91.06 429.89 L 96.35 419.54 L 102.05 409.58 L 108.18 399.98 L 114.77 390.63 L 121.74 381.62 L 129.10 372.93 L 136.85 364.56 L 145.01 356.50 L 153.46 348.81 L 162.28 341.41 L 171.46 334.29 L 181.02 327.45 L 190.97 320.88 L 193.90 307.41 L 197.19 294.46 L 200.84 282.03 L 204.83 270.10 L 209.16 258.63 L 213.83 247.62 L 218.81 237.05 L 224.38 226.41 L 230.26 216.20 L 236.44 206.43 L 242.94 197.08 L 249.74 188.13 L 256.85 179.57 L 264.28 171.38 L 273.46 162.18 L 283.02 153.49 L 292.99 145.29 L 303.37 137.58 L 314.17 130.34 L 325.42 123.58 L 336.87 117.40 L 348.72 111.67 L 360.96 106.40 L 373.62 101.59 L 386.72 97.23 L 400.27 93.34 L 413.70 90.05 L 427.52 87.20 L 441.72 84.79 L 456.34 82.85 L 471.38 81.37 L 486.86 80.38 Z" fill="#000000" fill-rule="evenodd" node-id="121" stroke="none" target-height="831.9669" target-width="911.9464" target-x="64.03111" target-y="80.01346"></path></clipPath><clipPath id="mask-3_13" node-id="41"><path d="M 486.86 80.38 L 501.27 80.01 L 515.38 80.26 L 529.21 81.12 L 542.78 82.56 L 556.11 84.60 L 569.45 87.25 L 582.45 90.45 L 595.14 94.18 L 607.52 98.44 L 619.62 103.24 L 631.55 108.62 L 643.10 114.48 L 654.29 120.81 L 665.13 127.63 L 675.63 134.95 L 685.80 142.75 L 695.54 150.99 L 704.88 159.66 L 713.82 168.77 L 722.36 178.34 L 730.43 188.28 L 738.02 198.61 L 745.16 209.35 L 751.83 220.49 L 758.05 232.07 L 769.36 237.33 L 780.52 242.98 L 791.54 249.01 L 802.41 255.43 L 813.15 262.25 L 826.23 271.24 L 838.93 280.74 L 851.27 290.77 L 863.26 301.34 L 872.54 310.15 L 881.50 319.23 L 890.13 328.59 L 898.46 338.24 L 906.47 348.18 L 914.14 358.40 L 921.41 368.85 L 928.28 379.53 L 934.76 390.44 L 940.86 401.61 L 946.52 412.99 L 951.71 424.56 L 956.44 436.32 L 960.70 448.28 L 964.49 460.45 L 967.77 472.74 L 970.50 485.18 L 972.70 497.79 L 974.35 510.58 L 975.46 523.55 L 975.98 536.48 L 975.88 549.54 L 975.17 562.77 L 973.83 576.16 L 971.84 589.75 L 969.02 604.58 L 965.77 618.95 L 962.10 632.88 L 958.01 646.38 L 953.51 659.47 L 948.61 672.17 L 943.16 684.86 L 937.32 697.16 L 931.10 709.06 L 924.50 720.57 L 917.52 731.73 L 910.15 742.52 L 902.33 753.08 L 894.15 763.28 L 885.61 773.13 L 876.71 782.64 L 867.44 791.81 L 857.79 800.64 L 847.85 809.09 L 837.58 817.20 L 826.95 824.98 L 815.96 832.44 L 804.61 839.57 L 792.88 846.38 L 784.16 851.78 L 774.82 857.07 L 764.83 862.22 L 754.14 867.24 L 743.49 871.78 L 732.08 876.19 L 719.87 880.45 L 706.83 884.56 L 693.95 888.20 L 680.18 891.67 L 665.47 894.97 L 649.78 898.08 L 634.38 900.75 L 617.95 903.23 L 600.46 905.49 L 581.85 907.53 L 560.70 909.39 L 539.95 910.75 L 519.60 911.61 L 499.64 911.98 L 480.05 911.87 L 460.19 911.26 L 440.81 910.15 L 421.90 908.54 L 403.44 906.45 L 385.42 903.89 L 367.22 900.75 L 349.57 897.11 L 332.44 892.98 L 315.82 888.39 L 299.69 883.32 L 286.19 878.59 L 273.10 873.51 L 260.41 868.11 L 248.10 862.37 L 236.16 856.30 L 224.58 849.90 L 213.11 843.00 L 202.06 835.76 L 191.42 828.18 L 181.17 820.25 L 171.30 811.97 L 161.82 803.34 L 152.67 794.30 L 143.95 784.89 L 135.64 775.11 L 127.74 764.93 L 120.23 754.36 L 113.12 743.39 L 106.56 732.22 L 100.43 720.64 L 94.73 708.62 L 89.45 696.15 L 84.61 683.21 L 80.21 669.77 L 76.46 656.48 L 73.16 642.70 L 70.34 628.41 L 67.99 613.58 L 66.15 598.19 L 64.82 582.22 L 64.14 567.09 L 64.03 552.57 L 64.46 538.63 L 65.41 525.24 L 66.86 512.37 L 68.90 499.28 L 71.42 486.70 L 74.40 474.60 L 77.84 462.97 L 81.72 451.78 L 86.18 440.62 L 91.06 429.89 L 96.35 419.54 L 102.05 409.58 L 108.18 399.98 L 114.77 390.63 L 121.74 381.62 L 129.10 372.93 L 136.85 364.56 L 145.01 356.50 L 153.46 348.81 L 162.28 341.41 L 171.46 334.29 L 181.02 327.45 L 190.97 320.88 L 193.90 307.41 L 197.19 294.46 L 200.84 282.03 L 204.83 270.10 L 209.16 258.63 L 213.83 247.62 L 218.81 237.05 L 224.38 226.41 L 230.26 216.20 L 236.44 206.43 L 242.94 197.08 L 249.74 188.13 L 256.85 179.57 L 264.28 171.38 L 273.46 162.18 L 283.02 153.49 L 292.99 145.29 L 303.37 137.58 L 314.17 130.34 L 325.42 123.58 L 336.87 117.40 L 348.72 111.67 L 360.96 106.40 L 373.62 101.59 L 386.72 97.23 L 400.27 93.34 L 413.70 90.05 L 427.52 87.20 L 441.72 84.79 L 456.34 82.85 L 471.38 81.37 L 486.86 80.38 Z" fill="#000000" fill-rule="evenodd" node-id="121" stroke="none" target-height="831.9669" target-width="911.9464" target-x="64.03111" target-y="80.01346"></path></clipPath><clipPath id="mask-3_12" node-id="41"><path d="M 486.86 80.38 L 501.27 80.01 L 515.38 80.26 L 529.21 81.12 L 542.78 82.56 L 556.11 84.60 L 569.45 87.25 L 582.45 90.45 L 595.14 94.18 L 607.52 98.44 L 619.62 103.24 L 631.55 108.62 L 643.10 114.48 L 654.29 120.81 L 665.13 127.63 L 675.63 134.95 L 685.80 142.75 L 695.54 150.99 L 704.88 159.66 L 713.82 168.77 L 722.36 178.34 L 730.43 188.28 L 738.02 198.61 L 745.16 209.35 L 751.83 220.49 L 758.05 232.07 L 769.36 237.33 L 780.52 242.98 L 791.54 249.01 L 802.41 255.43 L 813.15 262.25 L 826.23 271.24 L 838.93 280.74 L 851.27 290.77 L 863.26 301.34 L 872.54 310.15 L 881.50 319.23 L 890.13 328.59 L 898.46 338.24 L 906.47 348.18 L 914.14 358.40 L 921.41 368.85 L 928.28 379.53 L 934.76 390.44 L 940.86 401.61 L 946.52 412.99 L 951.71 424.56 L 956.44 436.32 L 960.70 448.28 L 964.49 460.45 L 967.77 472.74 L 970.50 485.18 L 972.70 497.79 L 974.35 510.58 L 975.46 523.55 L 975.98 536.48 L 975.88 549.54 L 975.17 562.77 L 973.83 576.16 L 971.84 589.75 L 969.02 604.58 L 965.77 618.95 L 962.10 632.88 L 958.01 646.38 L 953.51 659.47 L 948.61 672.17 L 943.16 684.86 L 937.32 697.16 L 931.10 709.06 L 924.50 720.57 L 917.52 731.73 L 910.15 742.52 L 902.33 753.08 L 894.15 763.28 L 885.61 773.13 L 876.71 782.64 L 867.44 791.81 L 857.79 800.64 L 847.85 809.09 L 837.58 817.20 L 826.95 824.98 L 815.96 832.44 L 804.61 839.57 L 792.88 846.38 L 784.16 851.78 L 774.82 857.07 L 764.83 862.22 L 754.14 867.24 L 743.49 871.78 L 732.08 876.19 L 719.87 880.45 L 706.83 884.56 L 693.95 888.20 L 680.18 891.67 L 665.47 894.97 L 649.78 898.08 L 634.38 900.75 L 617.95 903.23 L 600.46 905.49 L 581.85 907.53 L 560.70 909.39 L 539.95 910.75 L 519.60 911.61 L 499.64 911.98 L 480.05 911.87 L 460.19 911.26 L 440.81 910.15 L 421.90 908.54 L 403.44 906.45 L 385.42 903.89 L 367.22 900.75 L 349.57 897.11 L 332.44 892.98 L 315.82 888.39 L 299.69 883.32 L 286.19 878.59 L 273.10 873.51 L 260.41 868.11 L 248.10 862.37 L 236.16 856.30 L 224.58 849.90 L 213.11 843.00 L 202.06 835.76 L 191.42 828.18 L 181.17 820.25 L 171.30 811.97 L 161.82 803.34 L 152.67 794.30 L 143.95 784.89 L 135.64 775.11 L 127.74 764.93 L 120.23 754.36 L 113.12 743.39 L 106.56 732.22 L 100.43 720.64 L 94.73 708.62 L 89.45 696.15 L 84.61 683.21 L 80.21 669.77 L 76.46 656.48 L 73.16 642.70 L 70.34 628.41 L 67.99 613.58 L 66.15 598.19 L 64.82 582.22 L 64.14 567.09 L 64.03 552.57 L 64.46 538.63 L 65.41 525.24 L 66.86 512.37 L 68.90 499.28 L 71.42 486.70 L 74.40 474.60 L 77.84 462.97 L 81.72 451.78 L 86.18 440.62 L 91.06 429.89 L 96.35 419.54 L 102.05 409.58 L 108.18 399.98 L 114.77 390.63 L 121.74 381.62 L 129.10 372.93 L 136.85 364.56 L 145.01 356.50 L 153.46 348.81 L 162.28 341.41 L 171.46 334.29 L 181.02 327.45 L 190.97 320.88 L 193.90 307.41 L 197.19 294.46 L 200.84 282.03 L 204.83 270.10 L 209.16 258.63 L 213.83 247.62 L 218.81 237.05 L 224.38 226.41 L 230.26 216.20 L 236.44 206.43 L 242.94 197.08 L 249.74 188.13 L 256.85 179.57 L 264.28 171.38 L 273.46 162.18 L 283.02 153.49 L 292.99 145.29 L 303.37 137.58 L 314.17 130.34 L 325.42 123.58 L 336.87 117.40 L 348.72 111.67 L 360.96 106.40 L 373.62 101.59 L 386.72 97.23 L 400.27 93.34 L 413.70 90.05 L 427.52 87.20 L 441.72 84.79 L 456.34 82.85 L 471.38 81.37 L 486.86 80.38 Z" fill="#000000" fill-rule="evenodd" node-id="121" stroke="none" target-height="831.9669" target-width="911.9464" target-x="64.03111" target-y="80.01346"></path></clipPath><clipPath id="mask-3_11" node-id="41"><path d="M 486.86 80.38 L 501.27 80.01 L 515.38 80.26 L 529.21 81.12 L 542.78 82.56 L 556.11 84.60 L 569.45 87.25 L 582.45 90.45 L 595.14 94.18 L 607.52 98.44 L 619.62 103.24 L 631.55 108.62 L 643.10 114.48 L 654.29 120.81 L 665.13 127.63 L 675.63 134.95 L 685.80 142.75 L 695.54 150.99 L 704.88 159.66 L 713.82 168.77 L 722.36 178.34 L 730.43 188.28 L 738.02 198.61 L 745.16 209.35 L 751.83 220.49 L 758.05 232.07 L 769.36 237.33 L 780.52 242.98 L 791.54 249.01 L 802.41 255.43 L 813.15 262.25 L 826.23 271.24 L 838.93 280.74 L 851.27 290.77 L 863.26 301.34 L 872.54 310.15 L 881.50 319.23 L 890.13 328.59 L 898.46 338.24 L 906.47 348.18 L 914.14 358.40 L 921.41 368.85 L 928.28 379.53 L 934.76 390.44 L 940.86 401.61 L 946.52 412.99 L 951.71 424.56 L 956.44 436.32 L 960.70 448.28 L 964.49 460.45 L 967.77 472.74 L 970.50 485.18 L 972.70 497.79 L 974.35 510.58 L 975.46 523.55 L 975.98 536.48 L 975.88 549.54 L 975.17 562.77 L 973.83 576.16 L 971.84 589.75 L 969.02 604.58 L 965.77 618.95 L 962.10 632.88 L 958.01 646.38 L 953.51 659.47 L 948.61 672.17 L 943.16 684.86 L 937.32 697.16 L 931.10 709.06 L 924.50 720.57 L 917.52 731.73 L 910.15 742.52 L 902.33 753.08 L 894.15 763.28 L 885.61 773.13 L 876.71 782.64 L 867.44 791.81 L 857.79 800.64 L 847.85 809.09 L 837.58 817.20 L 826.95 824.98 L 815.96 832.44 L 804.61 839.57 L 792.88 846.38 L 784.16 851.78 L 774.82 857.07 L 764.83 862.22 L 754.14 867.24 L 743.49 871.78 L 732.08 876.19 L 719.87 880.45 L 706.83 884.56 L 693.95 888.20 L 680.18 891.67 L 665.47 894.97 L 649.78 898.08 L 634.38 900.75 L 617.95 903.23 L 600.46 905.49 L 581.85 907.53 L 560.70 909.39 L 539.95 910.75 L 519.60 911.61 L 499.64 911.98 L 480.05 911.87 L 460.19 911.26 L 440.81 910.15 L 421.90 908.54 L 403.44 906.45 L 385.42 903.89 L 367.22 900.75 L 349.57 897.11 L 332.44 892.98 L 315.82 888.39 L 299.69 883.32 L 286.19 878.59 L 273.10 873.51 L 260.41 868.11 L 248.10 862.37 L 236.16 856.30 L 224.58 849.90 L 213.11 843.00 L 202.06 835.76 L 191.42 828.18 L 181.17 820.25 L 171.30 811.97 L 161.82 803.34 L 152.67 794.30 L 143.95 784.89 L 135.64 775.11 L 127.74 764.93 L 120.23 754.36 L 113.12 743.39 L 106.56 732.22 L 100.43 720.64 L 94.73 708.62 L 89.45 696.15 L 84.61 683.21 L 80.21 669.77 L 76.46 656.48 L 73.16 642.70 L 70.34 628.41 L 67.99 613.58 L 66.15 598.19 L 64.82 582.22 L 64.14 567.09 L 64.03 552.57 L 64.46 538.63 L 65.41 525.24 L 66.86 512.37 L 68.90 499.28 L 71.42 486.70 L 74.40 474.60 L 77.84 462.97 L 81.72 451.78 L 86.18 440.62 L 91.06 429.89 L 96.35 419.54 L 102.05 409.58 L 108.18 399.98 L 114.77 390.63 L 121.74 381.62 L 129.10 372.93 L 136.85 364.56 L 145.01 356.50 L 153.46 348.81 L 162.28 341.41 L 171.46 334.29 L 181.02 327.45 L 190.97 320.88 L 193.90 307.41 L 197.19 294.46 L 200.84 282.03 L 204.83 270.10 L 209.16 258.63 L 213.83 247.62 L 218.81 237.05 L 224.38 226.41 L 230.26 216.20 L 236.44 206.43 L 242.94 197.08 L 249.74 188.13 L 256.85 179.57 L 264.28 171.38 L 273.46 162.18 L 283.02 153.49 L 292.99 145.29 L 303.37 137.58 L 314.17 130.34 L 325.42 123.58 L 336.87 117.40 L 348.72 111.67 L 360.96 106.40 L 373.62 101.59 L 386.72 97.23 L 400.27 93.34 L 413.70 90.05 L 427.52 87.20 L 441.72 84.79 L 456.34 82.85 L 471.38 81.37 L 486.86 80.38 Z" fill="#000000" fill-rule="evenodd" node-id="121" stroke="none" target-height="831.9669" target-width="911.9464" target-x="64.03111" target-y="80.01346"></path></clipPath><clipPath id="mask-3_10" node-id="41"><path d="M 486.86 80.38 L 501.27 80.01 L 515.38 80.26 L 529.21 81.12 L 542.78 82.56 L 556.11 84.60 L 569.45 87.25 L 582.45 90.45 L 595.14 94.18 L 607.52 98.44 L 619.62 103.24 L 631.55 108.62 L 643.10 114.48 L 654.29 120.81 L 665.13 127.63 L 675.63 134.95 L 685.80 142.75 L 695.54 150.99 L 704.88 159.66 L 713.82 168.77 L 722.36 178.34 L 730.43 188.28 L 738.02 198.61 L 745.16 209.35 L 751.83 220.49 L 758.05 232.07 L 769.36 237.33 L 780.52 242.98 L 791.54 249.01 L 802.41 255.43 L 813.15 262.25 L 826.23 271.24 L 838.93 280.74 L 851.27 290.77 L 863.26 301.34 L 872.54 310.15 L 881.50 319.23 L 890.13 328.59 L 898.46 338.24 L 906.47 348.18 L 914.14 358.40 L 921.41 368.85 L 928.28 379.53 L 934.76 390.44 L 940.86 401.61 L 946.52 412.99 L 951.71 424.56 L 956.44 436.32 L 960.70 448.28 L 964.49 460.45 L 967.77 472.74 L 970.50 485.18 L 972.70 497.79 L 974.35 510.58 L 975.46 523.55 L 975.98 536.48 L 975.88 549.54 L 975.17 562.77 L 973.83 576.16 L 971.84 589.75 L 969.02 604.58 L 965.77 618.95 L 962.10 632.88 L 958.01 646.38 L 953.51 659.47 L 948.61 672.17 L 943.16 684.86 L 937.32 697.16 L 931.10 709.06 L 924.50 720.57 L 917.52 731.73 L 910.15 742.52 L 902.33 753.08 L 894.15 763.28 L 885.61 773.13 L 876.71 782.64 L 867.44 791.81 L 857.79 800.64 L 847.85 809.09 L 837.58 817.20 L 826.95 824.98 L 815.96 832.44 L 804.61 839.57 L 792.88 846.38 L 784.16 851.78 L 774.82 857.07 L 764.83 862.22 L 754.14 867.24 L 743.49 871.78 L 732.08 876.19 L 719.87 880.45 L 706.83 884.56 L 693.95 888.20 L 680.18 891.67 L 665.47 894.97 L 649.78 898.08 L 634.38 900.75 L 617.95 903.23 L 600.46 905.49 L 581.85 907.53 L 560.70 909.39 L 539.95 910.75 L 519.60 911.61 L 499.64 911.98 L 480.05 911.87 L 460.19 911.26 L 440.81 910.15 L 421.90 908.54 L 403.44 906.45 L 385.42 903.89 L 367.22 900.75 L 349.57 897.11 L 332.44 892.98 L 315.82 888.39 L 299.69 883.32 L 286.19 878.59 L 273.10 873.51 L 260.41 868.11 L 248.10 862.37 L 236.16 856.30 L 224.58 849.90 L 213.11 843.00 L 202.06 835.76 L 191.42 828.18 L 181.17 820.25 L 171.30 811.97 L 161.82 803.34 L 152.67 794.30 L 143.95 784.89 L 135.64 775.11 L 127.74 764.93 L 120.23 754.36 L 113.12 743.39 L 106.56 732.22 L 100.43 720.64 L 94.73 708.62 L 89.45 696.15 L 84.61 683.21 L 80.21 669.77 L 76.46 656.48 L 73.16 642.70 L 70.34 628.41 L 67.99 613.58 L 66.15 598.19 L 64.82 582.22 L 64.14 567.09 L 64.03 552.57 L 64.46 538.63 L 65.41 525.24 L 66.86 512.37 L 68.90 499.28 L 71.42 486.70 L 74.40 474.60 L 77.84 462.97 L 81.72 451.78 L 86.18 440.62 L 91.06 429.89 L 96.35 419.54 L 102.05 409.58 L 108.18 399.98 L 114.77 390.63 L 121.74 381.62 L 129.10 372.93 L 136.85 364.56 L 145.01 356.50 L 153.46 348.81 L 162.28 341.41 L 171.46 334.29 L 181.02 327.45 L 190.97 320.88 L 193.90 307.41 L 197.19 294.46 L 200.84 282.03 L 204.83 270.10 L 209.16 258.63 L 213.83 247.62 L 218.81 237.05 L 224.38 226.41 L 230.26 216.20 L 236.44 206.43 L 242.94 197.08 L 249.74 188.13 L 256.85 179.57 L 264.28 171.38 L 273.46 162.18 L 283.02 153.49 L 292.99 145.29 L 303.37 137.58 L 314.17 130.34 L 325.42 123.58 L 336.87 117.40 L 348.72 111.67 L 360.96 106.40 L 373.62 101.59 L 386.72 97.23 L 400.27 93.34 L 413.70 90.05 L 427.52 87.20 L 441.72 84.79 L 456.34 82.85 L 471.38 81.37 L 486.86 80.38 Z" fill="#000000" fill-rule="evenodd" node-id="121" stroke="none" target-height="831.9669" target-width="911.9464" target-x="64.03111" target-y="80.01346"></path></clipPath><clipPath id="mask-3_9" node-id="41"><path d="M 486.86 80.38 L 501.27 80.01 L 515.38 80.26 L 529.21 81.12 L 542.78 82.56 L 556.11 84.60 L 569.45 87.25 L 582.45 90.45 L 595.14 94.18 L 607.52 98.44 L 619.62 103.24 L 631.55 108.62 L 643.10 114.48 L 654.29 120.81 L 665.13 127.63 L 675.63 134.95 L 685.80 142.75 L 695.54 150.99 L 704.88 159.66 L 713.82 168.77 L 722.36 178.34 L 730.43 188.28 L 738.02 198.61 L 745.16 209.35 L 751.83 220.49 L 758.05 232.07 L 769.36 237.33 L 780.52 242.98 L 791.54 249.01 L 802.41 255.43 L 813.15 262.25 L 826.23 271.24 L 838.93 280.74 L 851.27 290.77 L 863.26 301.34 L 872.54 310.15 L 881.50 319.23 L 890.13 328.59 L 898.46 338.24 L 906.47 348.18 L 914.14 358.40 L 921.41 368.85 L 928.28 379.53 L 934.76 390.44 L 940.86 401.61 L 946.52 412.99 L 951.71 424.56 L 956.44 436.32 L 960.70 448.28 L 964.49 460.45 L 967.77 472.74 L 970.50 485.18 L 972.70 497.79 L 974.35 510.58 L 975.46 523.55 L 975.98 536.48 L 975.88 549.54 L 975.17 562.77 L 973.83 576.16 L 971.84 589.75 L 969.02 604.58 L 965.77 618.95 L 962.10 632.88 L 958.01 646.38 L 953.51 659.47 L 948.61 672.17 L 943.16 684.86 L 937.32 697.16 L 931.10 709.06 L 924.50 720.57 L 917.52 731.73 L 910.15 742.52 L 902.33 753.08 L 894.15 763.28 L 885.61 773.13 L 876.71 782.64 L 867.44 791.81 L 857.79 800.64 L 847.85 809.09 L 837.58 817.20 L 826.95 824.98 L 815.96 832.44 L 804.61 839.57 L 792.88 846.38 L 784.16 851.78 L 774.82 857.07 L 764.83 862.22 L 754.14 867.24 L 743.49 871.78 L 732.08 876.19 L 719.87 880.45 L 706.83 884.56 L 693.95 888.20 L 680.18 891.67 L 665.47 894.97 L 649.78 898.08 L 634.38 900.75 L 617.95 903.23 L 600.46 905.49 L 581.85 907.53 L 560.70 909.39 L 539.95 910.75 L 519.60 911.61 L 499.64 911.98 L 480.05 911.87 L 460.19 911.26 L 440.81 910.15 L 421.90 908.54 L 403.44 906.45 L 385.42 903.89 L 367.22 900.75 L 349.57 897.11 L 332.44 892.98 L 315.82 888.39 L 299.69 883.32 L 286.19 878.59 L 273.10 873.51 L 260.41 868.11 L 248.10 862.37 L 236.16 856.30 L 224.58 849.90 L 213.11 843.00 L 202.06 835.76 L 191.42 828.18 L 181.17 820.25 L 171.30 811.97 L 161.82 803.34 L 152.67 794.30 L 143.95 784.89 L 135.64 775.11 L 127.74 764.93 L 120.23 754.36 L 113.12 743.39 L 106.56 732.22 L 100.43 720.64 L 94.73 708.62 L 89.45 696.15 L 84.61 683.21 L 80.21 669.77 L 76.46 656.48 L 73.16 642.70 L 70.34 628.41 L 67.99 613.58 L 66.15 598.19 L 64.82 582.22 L 64.14 567.09 L 64.03 552.57 L 64.46 538.63 L 65.41 525.24 L 66.86 512.37 L 68.90 499.28 L 71.42 486.70 L 74.40 474.60 L 77.84 462.97 L 81.72 451.78 L 86.18 440.62 L 91.06 429.89 L 96.35 419.54 L 102.05 409.58 L 108.18 399.98 L 114.77 390.63 L 121.74 381.62 L 129.10 372.93 L 136.85 364.56 L 145.01 356.50 L 153.46 348.81 L 162.28 341.41 L 171.46 334.29 L 181.02 327.45 L 190.97 320.88 L 193.90 307.41 L 197.19 294.46 L 200.84 282.03 L 204.83 270.10 L 209.16 258.63 L 213.83 247.62 L 218.81 237.05 L 224.38 226.41 L 230.26 216.20 L 236.44 206.43 L 242.94 197.08 L 249.74 188.13 L 256.85 179.57 L 264.28 171.38 L 273.46 162.18 L 283.02 153.49 L 292.99 145.29 L 303.37 137.58 L 314.17 130.34 L 325.42 123.58 L 336.87 117.40 L 348.72 111.67 L 360.96 106.40 L 373.62 101.59 L 386.72 97.23 L 400.27 93.34 L 413.70 90.05 L 427.52 87.20 L 441.72 84.79 L 456.34 82.85 L 471.38 81.37 L 486.86 80.38 Z" fill="#000000" fill-rule="evenodd" node-id="121" stroke="none" target-height="831.9669" target-width="911.9464" target-x="64.03111" target-y="80.01346"></path></clipPath><clipPath id="mask-3_8" node-id="41"><path d="M 486.86 80.38 L 501.27 80.01 L 515.38 80.26 L 529.21 81.12 L 542.78 82.56 L 556.11 84.60 L 569.45 87.25 L 582.45 90.45 L 595.14 94.18 L 607.52 98.44 L 619.62 103.24 L 631.55 108.62 L 643.10 114.48 L 654.29 120.81 L 665.13 127.63 L 675.63 134.95 L 685.80 142.75 L 695.54 150.99 L 704.88 159.66 L 713.82 168.77 L 722.36 178.34 L 730.43 188.28 L 738.02 198.61 L 745.16 209.35 L 751.83 220.49 L 758.05 232.07 L 769.36 237.33 L 780.52 242.98 L 791.54 249.01 L 802.41 255.43 L 813.15 262.25 L 826.23 271.24 L 838.93 280.74 L 851.27 290.77 L 863.26 301.34 L 872.54 310.15 L 881.50 319.23 L 890.13 328.59 L 898.46 338.24 L 906.47 348.18 L 914.14 358.40 L 921.41 368.85 L 928.28 379.53 L 934.76 390.44 L 940.86 401.61 L 946.52 412.99 L 951.71 424.56 L 956.44 436.32 L 960.70 448.28 L 964.49 460.45 L 967.77 472.74 L 970.50 485.18 L 972.70 497.79 L 974.35 510.58 L 975.46 523.55 L 975.98 536.48 L 975.88 549.54 L 975.17 562.77 L 973.83 576.16 L 971.84 589.75 L 969.02 604.58 L 965.77 618.95 L 962.10 632.88 L 958.01 646.38 L 953.51 659.47 L 948.61 672.17 L 943.16 684.86 L 937.32 697.16 L 931.10 709.06 L 924.50 720.57 L 917.52 731.73 L 910.15 742.52 L 902.33 753.08 L 894.15 763.28 L 885.61 773.13 L 876.71 782.64 L 867.44 791.81 L 857.79 800.64 L 847.85 809.09 L 837.58 817.20 L 826.95 824.98 L 815.96 832.44 L 804.61 839.57 L 792.88 846.38 L 784.16 851.78 L 774.82 857.07 L 764.83 862.22 L 754.14 867.24 L 743.49 871.78 L 732.08 876.19 L 719.87 880.45 L 706.83 884.56 L 693.95 888.20 L 680.18 891.67 L 665.47 894.97 L 649.78 898.08 L 634.38 900.75 L 617.95 903.23 L 600.46 905.49 L 581.85 907.53 L 560.70 909.39 L 539.95 910.75 L 519.60 911.61 L 499.64 911.98 L 480.05 911.87 L 460.19 911.26 L 440.81 910.15 L 421.90 908.54 L 403.44 906.45 L 385.42 903.89 L 367.22 900.75 L 349.57 897.11 L 332.44 892.98 L 315.82 888.39 L 299.69 883.32 L 286.19 878.59 L 273.10 873.51 L 260.41 868.11 L 248.10 862.37 L 236.16 856.30 L 224.58 849.90 L 213.11 843.00 L 202.06 835.76 L 191.42 828.18 L 181.17 820.25 L 171.30 811.97 L 161.82 803.34 L 152.67 794.30 L 143.95 784.89 L 135.64 775.11 L 127.74 764.93 L 120.23 754.36 L 113.12 743.39 L 106.56 732.22 L 100.43 720.64 L 94.73 708.62 L 89.45 696.15 L 84.61 683.21 L 80.21 669.77 L 76.46 656.48 L 73.16 642.70 L 70.34 628.41 L 67.99 613.58 L 66.15 598.19 L 64.82 582.22 L 64.14 567.09 L 64.03 552.57 L 64.46 538.63 L 65.41 525.24 L 66.86 512.37 L 68.90 499.28 L 71.42 486.70 L 74.40 474.60 L 77.84 462.97 L 81.72 451.78 L 86.18 440.62 L 91.06 429.89 L 96.35 419.54 L 102.05 409.58 L 108.18 399.98 L 114.77 390.63 L 121.74 381.62 L 129.10 372.93 L 136.85 364.56 L 145.01 356.50 L 153.46 348.81 L 162.28 341.41 L 171.46 334.29 L 181.02 327.45 L 190.97 320.88 L 193.90 307.41 L 197.19 294.46 L 200.84 282.03 L 204.83 270.10 L 209.16 258.63 L 213.83 247.62 L 218.81 237.05 L 224.38 226.41 L 230.26 216.20 L 236.44 206.43 L 242.94 197.08 L 249.74 188.13 L 256.85 179.57 L 264.28 171.38 L 273.46 162.18 L 283.02 153.49 L 292.99 145.29 L 303.37 137.58 L 314.17 130.34 L 325.42 123.58 L 336.87 117.40 L 348.72 111.67 L 360.96 106.40 L 373.62 101.59 L 386.72 97.23 L 400.27 93.34 L 413.70 90.05 L 427.52 87.20 L 441.72 84.79 L 456.34 82.85 L 471.38 81.37 L 486.86 80.38 Z" fill="#000000" fill-rule="evenodd" node-id="121" stroke="none" target-height="831.9669" target-width="911.9464" target-x="64.03111" target-y="80.01346"></path></clipPath><clipPath id="mask-3" node-id="41"><path d="M 422.86 0.38 C 542.07 -5.37 644.76 54.68 694.05 152.07 C 826.94 211.20 934.79 352.58 907.84 509.75 C 887.63 627.61 823.20 713.73 728.89 766.38 C 682.43 796.44 616.20 817.75 517.85 827.53 C 238.34 855.30 16.98 754.50 0.82 502.22 C -7.15 377.83 43.42 293.95 126.97 240.88 C 157.60 85.87 269.84 7.75 422.86 0.38 Z" fill="#000000" fill-rule="evenodd" node-id="121" stroke="none" target-height="860.6705" target-width="941.9407" target-x="-7.145999" target-y="-5.366632"></path></clipPath></defs><g node-id="192"><path d="M 0.00 0.00 L 1024.00 0.00 L 1024.00 1024.00 L 0.00 1024.00 Z" fill="none" group-id="1" id="矩形备份-7" node-id="39" stroke="none" target-height="1024" target-width="1024" target-x="0" target-y="0"></path><g node-id="193"><g node-id="194"><g node-id="202"><path d="M 486.86 80.38 L 501.27 80.01 L 515.38 80.26 L 529.21 81.12 L 542.78 82.56 L 556.11 84.60 L 569.45 87.25 L 582.45 90.45 L 595.14 94.18 L 607.52 98.44 L 619.62 103.24 L 631.55 108.62 L 643.10 114.48 L 654.29 120.81 L 665.13 127.63 L 675.63 134.95 L 685.80 142.75 L 695.54 150.99 L 704.88 159.66 L 713.82 168.77 L 722.36 178.34 L 730.43 188.28 L 738.02 198.61 L 745.16 209.35 L 751.83 220.49 L 758.05 232.07 L 769.36 237.33 L 780.52 242.98 L 791.54 249.01 L 802.41 255.43 L 813.15 262.25 L 826.23 271.24 L 838.93 280.74 L 851.27 290.77 L 863.26 301.34 L 872.54 310.15 L 881.50 319.23 L 890.13 328.59 L 898.46 338.24 L 906.47 348.18 L 914.14 358.40 L 921.41 368.85 L 928.28 379.53 L 934.76 390.44 L 940.86 401.61 L 946.52 412.99 L 951.71 424.56 L 956.44 436.32 L 960.70 448.28 L 964.49 460.45 L 967.77 472.74 L 970.50 485.18 L 972.70 497.79 L 974.35 510.58 L 975.46 523.55 L 975.98 536.48 L 975.88 549.54 L 975.17 562.77 L 973.83 576.16 L 971.84 589.75 L 969.02 604.58 L 965.77 618.95 L 962.10 632.88 L 958.01 646.38 L 953.51 659.47 L 948.61 672.17 L 943.16 684.86 L 937.32 697.16 L 931.10 709.06 L 924.50 720.57 L 917.52 731.73 L 910.15 742.52 L 902.33 753.08 L 894.15 763.28 L 885.61 773.13 L 876.71 782.64 L 867.44 791.81 L 857.79 800.64 L 847.85 809.09 L 837.58 817.20 L 826.95 824.98 L 815.96 832.44 L 804.61 839.57 L 792.88 846.38 L 784.16 851.78 L 774.82 857.07 L 764.83 862.22 L 754.14 867.24 L 743.49 871.78 L 732.08 876.19 L 719.87 880.45 L 706.83 884.56 L 693.95 888.20 L 680.18 891.67 L 665.47 894.97 L 649.78 898.08 L 634.38 900.75 L 617.95 903.23 L 600.46 905.49 L 581.85 907.53 L 560.70 909.39 L 539.95 910.75 L 519.60 911.61 L 499.64 911.98 L 480.05 911.87 L 460.19 911.26 L 440.81 910.15 L 421.90 908.54 L 403.44 906.45 L 385.42 903.89 L 367.22 900.75 L 349.57 897.11 L 332.44 892.98 L 315.82 888.39 L 299.69 883.32 L 286.19 878.59 L 273.10 873.51 L 260.41 868.11 L 248.10 862.37 L 236.16 856.30 L 224.58 849.90 L 213.11 843.00 L 202.06 835.76 L 191.42 828.18 L 181.17 820.25 L 171.30 811.97 L 161.82 803.34 L 152.67 794.30 L 143.95 784.89 L 135.64 775.11 L 127.74 764.93 L 120.23 754.36 L 113.12 743.39 L 106.56 732.22 L 100.43 720.64 L 94.73 708.62 L 89.45 696.15 L 84.61 683.21 L 80.21 669.77 L 76.46 656.48 L 73.16 642.70 L 70.34 628.41 L 67.99 613.58 L 66.15 598.19 L 64.82 582.22 L 64.14 567.09 L 64.03 552.57 L 64.46 538.63 L 65.41 525.24 L 66.86 512.37 L 68.90 499.28 L 71.42 486.70 L 74.40 474.60 L 77.84 462.97 L 81.72 451.78 L 86.18 440.62 L 91.06 429.89 L 96.35 419.54 L 102.05 409.58 L 108.18 399.98 L 114.77 390.63 L 121.74 381.62 L 129.10 372.93 L 136.85 364.56 L 145.01 356.50 L 153.46 348.81 L 162.28 341.41 L 171.46 334.29 L 181.02 327.45 L 190.97 320.88 L 193.90 307.41 L 197.19 294.46 L 200.84 282.03 L 204.83 270.10 L 209.16 258.63 L 213.83 247.62 L 218.81 237.05 L 224.38 226.41 L 230.26 216.20 L 236.44 206.43 L 242.94 197.08 L 249.74 188.13 L 256.85 179.57 L 264.28 171.38 L 273.46 162.18 L 283.02 153.49 L 292.99 145.29 L 303.37 137.58 L 314.17 130.34 L 325.42 123.58 L 336.87 117.40 L 348.72 111.67 L 360.96 106.40 L 373.62 101.59 L 386.72 97.23 L 400.27 93.34 L 413.70 90.05 L 427.52 87.20 L 441.72 84.79 L 456.34 82.85 L 471.38 81.37 L 486.86 80.38 Z" fill="url(#radialGradient-1)" fill-rule="evenodd" group-id="1,2,3,11" node-id="133" stroke="none" target-height="831.9669" target-width="911.9464" target-x="64.03111" target-y="80.01346"></path></g><path d="M 486.86 80.38 L 501.27 80.01 L 515.38 80.26 L 529.21 81.12 L 542.78 82.56 L 556.11 84.60 L 569.45 87.25 L 582.45 90.45 L 595.14 94.18 L 607.52 98.44 L 619.62 103.24 L 631.55 108.62 L 643.10 114.48 L 654.29 120.81 L 665.13 127.63 L 675.63 134.95 L 685.80 142.75 L 695.54 150.99 L 704.88 159.66 L 713.82 168.77 L 722.36 178.34 L 730.43 188.28 L 738.02 198.61 L 745.16 209.35 L 751.83 220.49 L 758.05 232.07 L 769.36 237.33 L 780.52 242.98 L 791.54 249.01 L 802.41 255.43 L 813.15 262.25 L 826.23 271.24 L 838.93 280.74 L 851.27 290.77 L 863.26 301.34 L 872.54 310.15 L 881.50 319.23 L 890.13 328.59 L 898.46 338.24 L 906.47 348.18 L 914.14 358.40 L 921.41 368.85 L 928.28 379.53 L 934.76 390.44 L 940.86 401.61 L 946.52 412.99 L 951.71 424.56 L 956.44 436.32 L 960.70 448.28 L 964.49 460.45 L 967.77 472.74 L 970.50 485.18 L 972.70 497.79 L 974.35 510.58 L 975.46 523.55 L 975.98 536.48 L 975.88 549.54 L 975.17 562.77 L 973.83 576.16 L 971.84 589.75 L 969.02 604.58 L 965.77 618.95 L 962.10 632.88 L 958.01 646.38 L 953.51 659.47 L 948.61 672.17 L 943.16 684.86 L 937.32 697.16 L 931.10 709.06 L 924.50 720.57 L 917.52 731.73 L 910.15 742.52 L 902.33 753.08 L 894.15 763.28 L 885.61 773.13 L 876.71 782.64 L 867.44 791.81 L 857.79 800.64 L 847.85 809.09 L 837.58 817.20 L 826.95 824.98 L 815.96 832.44 L 804.61 839.57 L 792.88 846.38 L 784.16 851.78 L 774.82 857.07 L 764.83 862.22 L 754.14 867.24 L 743.49 871.78 L 732.08 876.19 L 719.87 880.45 L 706.83 884.56 L 693.95 888.20 L 680.18 891.67 L 665.47 894.97 L 649.78 898.08 L 634.38 900.75 L 617.95 903.23 L 600.46 905.49 L 581.85 907.53 L 560.70 909.39 L 539.95 910.75 L 519.60 911.61 L 499.64 911.98 L 480.05 911.87 L 460.19 911.26 L 440.81 910.15 L 421.90 908.54 L 403.44 906.45 L 385.42 903.89 L 367.22 900.75 L 349.57 897.11 L 332.44 892.98 L 315.82 888.39 L 299.69 883.32 L 286.19 878.59 L 273.10 873.51 L 260.41 868.11 L 248.10 862.37 L 236.16 856.30 L 224.58 849.90 L 213.11 843.00 L 202.06 835.76 L 191.42 828.18 L 181.17 820.25 L 171.30 811.97 L 161.82 803.34 L 152.67 794.30 L 143.95 784.89 L 135.64 775.11 L 127.74 764.93 L 120.23 754.36 L 113.12 743.39 L 106.56 732.22 L 100.43 720.64 L 94.73 708.62 L 89.45 696.15 L 84.61 683.21 L 80.21 669.77 L 76.46 656.48 L 73.16 642.70 L 70.34 628.41 L 67.99 613.58 L 66.15 598.19 L 64.82 582.22 L 64.14 567.09 L 64.03 552.57 L 64.46 538.63 L 65.41 525.24 L 66.86 512.37 L 68.90 499.28 L 71.42 486.70 L 74.40 474.60 L 77.84 462.97 L 81.72 451.78 L 86.18 440.62 L 91.06 429.89 L 96.35 419.54 L 102.05 409.58 L 108.18 399.98 L 114.77 390.63 L 121.74 381.62 L 129.10 372.93 L 136.85 364.56 L 145.01 356.50 L 153.46 348.81 L 162.28 341.41 L 171.46 334.29 L 181.02 327.45 L 190.97 320.88 L 193.90 307.41 L 197.19 294.46 L 200.84 282.03 L 204.83 270.10 L 209.16 258.63 L 213.83 247.62 L 218.81 237.05 L 224.38 226.41 L 230.26 216.20 L 236.44 206.43 L 242.94 197.08 L 249.74 188.13 L 256.85 179.57 L 264.28 171.38 L 273.46 162.18 L 283.02 153.49 L 292.99 145.29 L 303.37 137.58 L 314.17 130.34 L 325.42 123.58 L 336.87 117.40 L 348.72 111.67 L 360.96 106.40 L 373.62 101.59 L 386.72 97.23 L 400.27 93.34 L 413.70 90.05 L 427.52 87.20 L 441.72 84.79 L 456.34 82.85 L 471.38 81.37 L 486.86 80.38 Z" fill="#000000" fill-rule="evenodd" filter="url(#filter-4)" group-id="1,2,3,12" node-id="138" stroke="none" target-height="831.9669" target-width="911.9464" target-x="64.03111" target-y="80.01346"></path></g><g node-id="195"><g clip-path="url(#mask-3_8)" group-id="1,2,4" id="椭圆形备份-16" node-id="46"><path d="M 422.53 488.00 L 422.33 492.65 L 421.79 497.14 L 420.90 501.48 L 419.68 505.70 L 417.53 511.16 L 414.88 516.27 L 411.73 521.07 L 408.09 525.53 L 404.06 529.56 L 399.60 533.20 L 394.80 536.35 L 389.69 539.00 L 384.23 541.15 L 380.02 542.37 L 375.67 543.26 L 371.18 543.80 L 366.53 544.00 L 361.88 543.80 L 357.39 543.26 L 353.05 542.37 L 348.83 541.15 L 343.38 539.00 L 338.26 536.35 L 333.46 533.20 L 329.00 529.56 L 324.97 525.53 L 321.34 521.07 L 318.18 516.27 L 315.53 511.16 L 313.39 505.70 L 312.16 501.48 L 311.27 497.14 L 310.73 492.65 L 310.53 488.00 L 310.73 483.35 L 311.27 478.86 L 312.16 474.52 L 313.39 470.30 L 315.53 464.84 L 318.18 459.73 L 321.34 454.93 L 324.97 450.47 L 329.00 446.44 L 333.46 442.80 L 338.26 439.65 L 343.38 437.00 L 348.83 434.85 L 353.05 433.63 L 357.39 432.74 L 361.88 432.20 L 366.53 432.00 L 371.18 432.20 L 375.67 432.74 L 380.02 433.63 L 384.23 434.85 L 389.69 437.00 L 394.80 439.65 L 399.60 442.80 L 404.06 446.44 L 408.09 450.47 L 411.73 454.93 L 414.88 459.73 L 417.53 464.84 L 419.68 470.30 L 420.90 474.52 L 421.79 478.86 L 422.33 483.35 L 422.53 488.00 Z" fill="#833b0a" fill-rule="evenodd" group-id="1,2,4,13" node-id="145" stroke="none" target-height="112" target-width="112" target-x="310.53085" target-y="432"></path><path d="M 422.53 488.00 L 422.33 492.65 L 421.79 497.14 L 420.90 501.48 L 419.68 505.70 L 417.53 511.16 L 414.88 516.27 L 411.73 521.07 L 408.09 525.53 L 404.06 529.56 L 399.60 533.20 L 394.80 536.35 L 389.69 539.00 L 384.23 541.15 L 380.02 542.37 L 375.67 543.26 L 371.18 543.80 L 366.53 544.00 L 361.88 543.80 L 357.39 543.26 L 353.05 542.37 L 348.83 541.15 L 343.38 539.00 L 338.26 536.35 L 333.46 533.20 L 329.00 529.56 L 324.97 525.53 L 321.34 521.07 L 318.18 516.27 L 315.53 511.16 L 313.39 505.70 L 312.16 501.48 L 311.27 497.14 L 310.73 492.65 L 310.53 488.00 L 310.73 483.35 L 311.27 478.86 L 312.16 474.52 L 313.39 470.30 L 315.53 464.84 L 318.18 459.73 L 321.34 454.93 L 324.97 450.47 L 329.00 446.44 L 333.46 442.80 L 338.26 439.65 L 343.38 437.00 L 348.83 434.85 L 353.05 433.63 L 357.39 432.74 L 361.88 432.20 L 366.53 432.00 L 371.18 432.20 L 375.67 432.74 L 380.02 433.63 L 384.23 434.85 L 389.69 437.00 L 394.80 439.65 L 399.60 442.80 L 404.06 446.44 L 408.09 450.47 L 411.73 454.93 L 414.88 459.73 L 417.53 464.84 L 419.68 470.30 L 420.90 474.52 L 421.79 478.86 L 422.33 483.35 L 422.53 488.00 Z" fill="#000000" fill-rule="evenodd" filter="url(#filter-6)" group-id="1,2,4,14" node-id="150" stroke="none" target-height="112" target-width="112" target-x="310.53085" target-y="432"></path></g></g><g node-id="196"><g clip-path="url(#mask-3_9)" group-id="1,2,5" id="路径-149" node-id="49"><path d="M 593.45 578.56 L 595.87 579.05 L 598.06 579.90 L 600.03 581.12 L 601.77 582.66 L 603.20 584.43 L 604.34 586.46 L 605.11 588.65 L 605.48 590.97 L 605.44 593.44 L 604.38 600.79 L 602.86 607.64 L 600.91 614.03 L 598.54 619.99 L 595.77 625.57 L 592.58 630.78 L 588.98 635.65 L 584.97 640.19 L 580.55 644.42 L 575.69 648.35 L 570.37 651.97 L 564.55 655.30 L 558.21 658.33 L 551.30 661.04 L 543.53 663.49 L 535.10 665.57 L 525.96 667.24 L 516.04 668.48 L 505.31 669.25 L 493.68 669.52 L 482.07 669.25 L 471.33 668.48 L 461.42 667.24 L 452.27 665.57 L 443.83 663.50 L 436.04 661.05 L 429.13 658.34 L 422.77 655.32 L 416.94 652.00 L 411.61 648.37 L 406.73 644.45 L 402.28 640.23 L 398.25 635.69 L 394.62 630.82 L 391.40 625.61 L 388.59 620.04 L 386.19 614.08 L 384.21 607.70 L 382.65 600.86 L 381.54 593.52 L 381.49 591.05 L 381.85 588.73 L 382.61 586.54 L 383.73 584.50 L 385.15 582.72 L 386.88 581.17 L 388.85 579.94 L 391.02 579.07 L 393.45 578.57 L 395.93 578.52 L 398.24 578.87 L 400.44 579.63 L 402.47 580.75 L 404.26 582.17 L 405.80 583.90 L 407.03 585.87 L 407.90 588.05 L 408.41 590.48 L 409.31 596.32 L 410.65 601.71 L 412.40 606.68 L 414.56 611.27 L 417.12 615.50 L 420.10 619.42 L 423.43 622.96 L 427.24 626.24 L 431.56 629.27 L 436.44 632.03 L 441.94 634.52 L 448.10 636.73 L 455.17 638.67 L 463.17 640.25 L 472.18 641.45 L 482.32 642.22 L 493.68 642.48 L 505.05 642.22 L 515.17 641.46 L 524.17 640.26 L 532.15 638.67 L 539.20 636.74 L 545.35 634.54 L 550.82 632.05 L 555.68 629.29 L 559.98 626.27 L 563.76 623.00 L 567.07 619.46 L 570.01 615.55 L 572.54 611.32 L 574.67 606.74 L 576.39 601.78 L 577.70 596.40 L 578.56 590.56 L 579.00 588.31 L 579.75 586.27 L 580.81 584.41 L 582.16 582.73 L 583.72 581.32 L 585.51 580.14 L 587.45 579.26 L 589.53 578.71 L 591.75 578.48 L 593.45 578.56 Z" fill="#ed1f2a" fill-rule="nonzero" group-id="1,2,5,15" node-id="157" stroke="none" target-height="91.03644" target-width="223.98538" target-x="381.49265" target-y="578.48224"></path><path d="M 593.45 578.56 L 595.87 579.05 L 598.06 579.90 L 600.03 581.12 L 601.77 582.66 L 603.20 584.43 L 604.34 586.46 L 605.11 588.65 L 605.48 590.97 L 605.44 593.44 L 604.38 600.79 L 602.86 607.64 L 600.91 614.03 L 598.54 619.99 L 595.77 625.57 L 592.58 630.78 L 588.98 635.65 L 584.97 640.19 L 580.55 644.42 L 575.69 648.35 L 570.37 651.97 L 564.55 655.30 L 558.21 658.33 L 551.30 661.04 L 543.53 663.49 L 535.10 665.57 L 525.96 667.24 L 516.04 668.48 L 505.31 669.25 L 493.68 669.52 L 482.07 669.25 L 471.33 668.48 L 461.42 667.24 L 452.27 665.57 L 443.83 663.50 L 436.04 661.05 L 429.13 658.34 L 422.77 655.32 L 416.94 652.00 L 411.61 648.37 L 406.73 644.45 L 402.28 640.23 L 398.25 635.69 L 394.62 630.82 L 391.40 625.61 L 388.59 620.04 L 386.19 614.08 L 384.21 607.70 L 382.65 600.86 L 381.54 593.52 L 381.49 591.05 L 381.85 588.73 L 382.61 586.54 L 383.73 584.50 L 385.15 582.72 L 386.88 581.17 L 388.85 579.94 L 391.02 579.07 L 393.45 578.57 L 395.93 578.52 L 398.24 578.87 L 400.44 579.63 L 402.47 580.75 L 404.26 582.17 L 405.80 583.90 L 407.03 585.87 L 407.90 588.05 L 408.41 590.48 L 409.31 596.32 L 410.65 601.71 L 412.40 606.68 L 414.56 611.27 L 417.12 615.50 L 420.10 619.42 L 423.43 622.96 L 427.24 626.24 L 431.56 629.27 L 436.44 632.03 L 441.94 634.52 L 448.10 636.73 L 455.17 638.67 L 463.17 640.25 L 472.18 641.45 L 482.32 642.22 L 493.68 642.48 L 505.05 642.22 L 515.17 641.46 L 524.17 640.26 L 532.15 638.67 L 539.20 636.74 L 545.35 634.54 L 550.82 632.05 L 555.68 629.29 L 559.98 626.27 L 563.76 623.00 L 567.07 619.46 L 570.01 615.55 L 572.54 611.32 L 574.67 606.74 L 576.39 601.78 L 577.70 596.40 L 578.56 590.56 L 579.00 588.31 L 579.75 586.27 L 580.81 584.41 L 582.16 582.73 L 583.72 581.32 L 585.51 580.14 L 587.45 579.26 L 589.53 578.71 L 591.75 578.48 L 593.45 578.56 Z" fill="#000000" fill-rule="nonzero" filter="url(#filter-8)" group-id="1,2,5,16" node-id="162" stroke="none" target-height="91.03644" target-width="223.98538" target-x="381.49265" target-y="578.48224"></path></g></g><g node-id="197"><g clip-path="url(#mask-3_10)" group-id="1,2,6" id="椭圆形备份-20" node-id="52"><path d="M 694.53 488.00 L 694.33 492.65 L 693.79 497.14 L 692.90 501.48 L 691.68 505.70 L 689.53 511.16 L 686.88 516.27 L 683.73 521.07 L 680.09 525.53 L 676.06 529.56 L 671.60 533.20 L 666.80 536.35 L 661.69 539.00 L 656.23 541.15 L 652.02 542.37 L 647.67 543.26 L 643.18 543.80 L 638.53 544.00 L 633.88 543.80 L 629.39 543.26 L 625.05 542.37 L 620.83 541.15 L 615.38 539.00 L 610.26 536.35 L 605.46 533.20 L 601.00 529.56 L 596.97 525.53 L 593.34 521.07 L 590.18 516.27 L 587.53 511.16 L 585.39 505.70 L 584.16 501.48 L 583.27 497.14 L 582.73 492.65 L 582.53 488.00 L 582.73 483.35 L 583.27 478.86 L 584.16 474.52 L 585.39 470.30 L 587.53 464.84 L 590.18 459.73 L 593.34 454.93 L 596.97 450.47 L 601.00 446.44 L 605.46 442.80 L 610.26 439.65 L 615.38 437.00 L 620.83 434.85 L 625.05 433.63 L 629.39 432.74 L 633.88 432.20 L 638.53 432.00 L 643.18 432.20 L 647.67 432.74 L 652.02 433.63 L 656.23 434.85 L 661.69 437.00 L 666.80 439.65 L 671.60 442.80 L 676.06 446.44 L 680.09 450.47 L 683.73 454.93 L 686.88 459.73 L 689.53 464.84 L 691.68 470.30 L 692.90 474.52 L 693.79 478.86 L 694.33 483.35 L 694.53 488.00 Z" fill="#833b0a" fill-rule="evenodd" group-id="1,2,6,17" node-id="169" stroke="none" target-height="112" target-width="112" target-x="582.5309" target-y="432"></path><path d="M 694.53 488.00 L 694.33 492.65 L 693.79 497.14 L 692.90 501.48 L 691.68 505.70 L 689.53 511.16 L 686.88 516.27 L 683.73 521.07 L 680.09 525.53 L 676.06 529.56 L 671.60 533.20 L 666.80 536.35 L 661.69 539.00 L 656.23 541.15 L 652.02 542.37 L 647.67 543.26 L 643.18 543.80 L 638.53 544.00 L 633.88 543.80 L 629.39 543.26 L 625.05 542.37 L 620.83 541.15 L 615.38 539.00 L 610.26 536.35 L 605.46 533.20 L 601.00 529.56 L 596.97 525.53 L 593.34 521.07 L 590.18 516.27 L 587.53 511.16 L 585.39 505.70 L 584.16 501.48 L 583.27 497.14 L 582.73 492.65 L 582.53 488.00 L 582.73 483.35 L 583.27 478.86 L 584.16 474.52 L 585.39 470.30 L 587.53 464.84 L 590.18 459.73 L 593.34 454.93 L 596.97 450.47 L 601.00 446.44 L 605.46 442.80 L 610.26 439.65 L 615.38 437.00 L 620.83 434.85 L 625.05 433.63 L 629.39 432.74 L 633.88 432.20 L 638.53 432.00 L 643.18 432.20 L 647.67 432.74 L 652.02 433.63 L 656.23 434.85 L 661.69 437.00 L 666.80 439.65 L 671.60 442.80 L 676.06 446.44 L 680.09 450.47 L 683.73 454.93 L 686.88 459.73 L 689.53 464.84 L 691.68 470.30 L 692.90 474.52 L 693.79 478.86 L 694.33 483.35 L 694.53 488.00 Z" fill="#000000" fill-rule="evenodd" filter="url(#filter-10)" group-id="1,2,6,18" node-id="174" stroke="none" target-height="112" target-width="112" target-x="582.5309" target-y="432"></path></g></g><g node-id="198"><g clip-path="url(#mask-3_11)" group-id="1,2,7" node-id="178"><path d="M 385.21 304.26 L 387.68 305.00 L 389.74 306.01 L 391.44 307.27 L 392.84 308.78 L 393.92 310.54 L 394.62 312.45 L 394.94 314.56 L 394.86 316.93 L 393.33 327.32 L 391.65 336.37 L 389.85 344.20 L 387.63 351.93 L 385.22 358.71 L 382.64 364.64 L 379.61 370.34 L 376.27 375.52 L 372.64 380.21 L 368.64 384.59 L 364.18 388.81 L 359.24 392.87 L 354.08 396.66 L 348.29 400.57 L 341.82 404.60 L 337.59 406.86 L 332.67 408.94 L 326.99 410.82 L 321.20 412.33 L 314.90 413.63 L 308.07 414.70 L 297.67 415.82 L 286.63 416.45 L 275.46 416.58 L 264.22 416.24 L 253.07 415.46 L 242.41 414.28 L 232.04 412.67 L 222.74 410.75 L 220.90 410.13 L 219.28 409.25 L 217.86 408.09 L 216.65 406.71 L 215.70 405.18 L 215.01 403.46 L 214.62 401.66 L 214.55 399.79 L 214.81 397.83 L 215.42 395.96 L 216.28 394.33 L 217.40 392.92 L 218.74 391.71 L 220.25 390.77 L 221.93 390.07 L 223.71 389.66 L 225.56 389.56 L 227.52 389.77 L 238.10 391.51 L 248.14 392.63 L 257.66 393.18 L 266.70 393.19 L 275.92 392.67 L 284.50 391.69 L 292.49 390.30 L 299.93 388.50 L 307.40 386.17 L 314.16 383.55 L 320.24 380.66 L 325.71 377.51 L 331.29 373.92 L 335.94 370.67 L 340.23 367.30 L 343.96 363.88 L 347.35 360.15 L 350.54 355.91 L 353.46 351.25 L 356.47 345.54 L 359.34 339.30 L 362.55 331.53 L 365.76 323.09 L 369.54 312.64 L 370.32 311.00 L 371.44 309.42 L 372.93 307.89 L 374.62 306.58 L 376.50 305.51 L 378.59 304.67 L 380.76 304.15 L 382.96 304.01 L 385.21 304.26 Z" fill="#a05400" fill-rule="nonzero" group-id="1,2,7" id="路径-85" node-id="55" stroke="none" target-height="112.56253" target-width="180.39905" target-x="214.54535" target-y="304.01404"></path></g></g><g node-id="199"><g clip-path="url(#mask-3_12)" group-id="1,2,8" node-id="182"><path d="M 608.30 304.26 L 605.83 305.00 L 603.77 306.01 L 602.06 307.27 L 600.67 308.78 L 599.58 310.54 L 598.88 312.45 L 598.56 314.56 L 598.64 316.93 L 600.18 327.32 L 601.86 336.37 L 603.66 344.20 L 605.87 351.93 L 608.28 358.71 L 610.87 364.64 L 613.90 370.34 L 617.23 375.52 L 620.87 380.21 L 624.87 384.59 L 629.33 388.81 L 634.27 392.87 L 639.43 396.66 L 645.22 400.57 L 651.68 404.60 L 655.92 406.86 L 660.83 408.94 L 666.52 410.82 L 672.31 412.33 L 678.60 413.63 L 685.44 414.70 L 695.84 415.82 L 706.88 416.45 L 718.05 416.58 L 729.28 416.24 L 740.44 415.46 L 751.10 414.28 L 761.47 412.67 L 770.76 410.75 L 772.60 410.13 L 774.22 409.25 L 775.65 408.09 L 776.86 406.71 L 777.80 405.18 L 778.50 403.46 L 778.89 401.66 L 778.96 399.79 L 778.70 397.83 L 778.09 395.96 L 777.23 394.33 L 776.11 392.92 L 774.76 391.71 L 773.26 390.77 L 771.57 390.07 L 769.80 389.66 L 767.94 389.56 L 765.99 389.77 L 755.40 391.51 L 745.37 392.63 L 735.85 393.18 L 726.81 393.19 L 717.59 392.67 L 709.00 391.69 L 701.02 390.30 L 693.58 388.50 L 686.10 386.17 L 679.35 383.55 L 673.26 380.66 L 667.79 377.51 L 663.24 374.59 L 658.32 371.22 L 654.16 368.04 L 650.34 364.66 L 646.93 361.06 L 643.82 357.12 L 640.78 352.50 L 637.98 347.43 L 634.99 341.18 L 632.48 335.31 L 632.48 335.31 L 629.84 328.65 L 629.84 328.65 L 627.02 321.12 L 627.02 321.12 L 623.96 312.64 L 623.96 312.64 L 623.19 311.00 L 622.07 309.42 L 620.58 307.89 L 618.88 306.58 L 617.00 305.51 L 614.92 304.67 L 612.74 304.15 L 610.55 304.01 L 608.30 304.26 Z" fill="#a05400" fill-rule="nonzero" group-id="1,2,8" id="路径" node-id="56" stroke="none" target-height="112.56253" target-width="180.39905" target-x="598.5616" target-y="304.01404"></path></g></g><g node-id="200"><g clip-path="url(#mask-3_13)" group-id="1,2,9" node-id="186"><path d="M 902.53 608.00 L 902.22 614.63 L 901.37 621.04 L 899.98 627.25 L 898.04 633.29 L 895.60 639.15 L 892.71 644.76 L 889.37 650.12 L 885.55 655.25 L 881.35 660.06 L 876.79 664.54 L 871.85 668.71 L 866.50 672.56 L 860.91 676.00 L 855.03 679.04 L 848.85 681.68 L 842.35 683.92 L 835.73 685.67 L 828.91 686.94 L 821.85 687.72 L 814.53 688.00 L 807.21 687.72 L 800.15 686.94 L 793.33 685.67 L 786.72 683.92 L 780.21 681.68 L 774.03 679.04 L 768.15 676.00 L 762.56 672.56 L 757.22 668.71 L 752.27 664.54 L 747.71 660.06 L 743.51 655.25 L 739.69 650.12 L 736.35 644.76 L 733.46 639.15 L 731.02 633.29 L 729.09 627.25 L 727.69 621.04 L 726.84 614.63 L 726.53 608.00 L 726.84 601.37 L 727.69 594.96 L 729.09 588.75 L 731.02 582.71 L 733.46 576.85 L 736.35 571.24 L 739.69 565.88 L 743.51 560.75 L 747.71 555.94 L 752.27 551.46 L 757.22 547.29 L 762.56 543.44 L 768.15 540.00 L 774.03 536.96 L 780.21 534.32 L 786.72 532.08 L 793.33 530.33 L 800.15 529.06 L 807.21 528.28 L 814.53 528.00 L 821.85 528.28 L 828.91 529.06 L 835.73 530.33 L 842.35 532.08 L 848.85 534.32 L 855.03 536.96 L 860.91 540.00 L 866.50 543.44 L 871.85 547.29 L 876.79 551.46 L 881.35 555.94 L 885.55 560.75 L 889.37 565.88 L 892.71 571.24 L 895.60 576.85 L 898.04 582.71 L 899.98 588.75 L 901.37 594.96 L 902.22 601.37 L 902.53 608.00 Z" fill="#ff5ea4" fill-opacity="0.8" fill-rule="evenodd" filter="url(#filter-11)" group-id="1,2,9" id="椭圆形" node-id="57" stroke="none" target-height="160" target-width="176" target-x="726.5309" target-y="528"></path></g></g><g clip-path="url(#mask-3_14)" group-id="1,2,10" node-id="190"><path d="M 310.53 624.00 L 310.22 630.63 L 309.37 637.04 L 307.98 643.25 L 306.04 649.29 L 303.60 655.15 L 300.71 660.76 L 297.37 666.12 L 293.55 671.25 L 289.35 676.06 L 284.79 680.54 L 279.85 684.71 L 274.50 688.56 L 268.91 692.00 L 263.03 695.04 L 256.85 697.68 L 250.35 699.92 L 243.73 701.67 L 236.91 702.94 L 229.85 703.72 L 222.53 704.00 L 215.21 703.72 L 208.15 702.94 L 201.33 701.67 L 194.72 699.92 L 188.21 697.68 L 182.03 695.04 L 176.15 692.00 L 170.56 688.56 L 165.22 684.71 L 160.27 680.54 L 155.71 676.06 L 151.51 671.25 L 147.69 666.12 L 144.35 660.76 L 141.46 655.15 L 139.02 649.29 L 137.09 643.25 L 135.69 637.04 L 134.84 630.63 L 134.53 624.00 L 134.84 617.37 L 135.69 610.96 L 137.09 604.75 L 139.02 598.71 L 141.46 592.85 L 144.35 587.24 L 147.69 581.88 L 151.51 576.75 L 155.71 571.94 L 160.27 567.46 L 165.22 563.29 L 170.56 559.44 L 176.15 556.00 L 182.03 552.96 L 188.21 550.32 L 194.72 548.08 L 201.33 546.33 L 208.15 545.06 L 215.21 544.28 L 222.53 544.00 L 229.85 544.28 L 236.91 545.06 L 243.73 546.33 L 250.35 548.08 L 256.85 550.32 L 263.03 552.96 L 268.91 556.00 L 274.50 559.44 L 279.85 563.29 L 284.79 567.46 L 289.35 571.94 L 293.55 576.75 L 297.37 581.88 L 300.71 587.24 L 303.60 592.85 L 306.04 598.71 L 307.98 604.75 L 309.37 610.96 L 310.22 617.37 L 310.53 624.00 Z" fill="#ff5ea4" fill-opacity="0.8" fill-rule="evenodd" filter="url(#filter-12)" group-id="1,2,10" id="椭圆形备份-6" node-id="58" stroke="none" target-height="160" target-width="176" target-x="134.53085" target-y="544"></path></g></g></g></svg>